<?xml version="1.0" standalone="no"?>
<!DOCTYPE svg PUBLIC "-//W3C//DTD SVG 20010904//EN"
 "http://www.w3.org/TR/2001/REC-SVG-20010904/DTD/svg10.dtd">
<svg version="1.0" xmlns="http://www.w3.org/2000/svg"
 width="794.000000pt" height="823.000000pt" viewBox="0 0 794.000000 823.000000"
 preserveAspectRatio="xMidYMid meet">

<g transform="translate(0.000000,823.000000) scale(0.100000,-0.100000)"
fill="#000000" stroke="none">
<path d="M3381 8071 c-13 -23 19 -57 44 -47 13 4 16 1 13 -17 -2 -14 -17 -29
-43 -41 -34 -17 -72 -21 -255 -27 -343 -12 -470 -58 -470 -169 0 -69 64 -116
93 -68 13 20 -6 48 -34 48 -46 0 -1 69 60 94 22 8 71 20 108 26 37 5 82 12
100 15 l32 6 -28 -58 c-16 -32 -52 -121 -80 -198 -100 -269 -103 -276 -158
-333 -52 -55 -52 -55 -103 -50 -72 7 -105 40 -105 106 0 66 35 122 76 122 26
0 29 -3 24 -20 -14 -43 44 -69 65 -30 21 38 -34 90 -95 90 -77 0 -119 -59
-113 -157 4 -57 8 -67 40 -99 27 -28 46 -37 81 -41 71 -8 110 4 161 48 62 55
83 94 156 289 33 91 79 202 100 246 l39 81 133 6 c144 5 188 16 231 55 36 34
39 103 5 126 -30 21 -65 20 -77 -3z"/>
<path d="M5000 7928 c-105 -68 -179 -95 -278 -104 -83 -7 -135 15 -140 58 -3
24 0 27 23 25 35 -3 55 24 36 47 -30 35 -87 12 -97 -39 -10 -53 11 -91 63
-116 58 -28 160 -22 249 14 l62 25 -46 -97 c-85 -179 -175 -341 -190 -341 -3
0 -53 12 -110 26 -136 34 -214 31 -249 -10 -45 -53 -16 -129 67 -174 85 -45
214 -14 284 69 l27 31 52 -22 c29 -13 93 -42 142 -65 161 -77 296 -94 363 -46
37 26 54 78 41 123 -7 26 -6 34 7 41 56 32 129 126 111 143 -3 4 -21 -11 -39
-32 -76 -86 -168 -123 -181 -72 -9 33 7 51 60 70 93 33 148 124 106 176 -30
38 -80 15 -141 -63 -17 -22 -24 -24 -41 -16 -11 6 -29 11 -40 11 -12 0 -21 2
-21 4 0 2 21 47 46 101 47 98 63 168 46 194 -14 21 -28 6 -40 -41 -20 -79
-111 -260 -133 -265 -16 -5 -20 -12 -16 -32 9 -48 -60 -151 -103 -151 -18 0
-11 19 41 123 42 85 49 105 40 124 -15 33 -25 29 -48 -24 -12 -27 -38 -86 -58
-132 -31 -70 -36 -87 -26 -107 12 -27 58 -33 79 -12 15 15 15 4 1 -45 -12 -44
-10 -45 -137 14 -59 27 -81 42 -76 51 4 7 20 31 34 53 15 22 62 108 105 190
42 83 84 157 91 166 8 8 14 20 14 25 0 13 44 52 98 89 30 20 42 34 40 48 -2
11 -8 22 -13 24 -6 2 -53 -25 -105 -59z m343 -305 c10 -17 -14 -54 -54 -83
-79 -57 -85 -30 -12 51 34 37 57 48 66 32z m-160 -69 c3 -4 -1 -20 -9 -36 -9
-17 -18 -54 -21 -83 -5 -44 -2 -54 14 -66 11 -8 22 -22 26 -31 8 -22 45 -24
53 -3 9 23 24 7 24 -24 0 -57 -87 -99 -167 -81 -19 5 -36 10 -38 12 -2 1 7 35
21 73 17 52 24 92 24 158 l0 87 33 0 c19 0 36 -3 40 -6z m-116 -118 c-3 -29
-13 -81 -22 -115 -14 -49 -22 -61 -38 -61 -17 0 -19 5 -14 33 6 38 66 197 74
197 3 0 3 -24 0 -54z m-504 -49 c42 -12 77 -26 77 -32 0 -14 -64 -64 -105 -81
-44 -18 -85 -18 -133 1 -45 18 -77 65 -68 100 12 49 84 53 229 12z"/>
<path d="M7700 7960 c0 -5 10 -10 23 -10 18 0 19 2 7 10 -19 13 -30 13 -30 0z"/>
<path d="M0 7939 c0 -5 5 -7 10 -4 5 3 10 8 10 11 0 2 -4 4 -10 4 -5 0 -10 -5
-10 -11z"/>
<path d="M4225 7888 c-2 -7 -9 -31 -16 -53 -26 -86 -111 -253 -131 -259 -15
-3 -19 -10 -15 -26 3 -13 -8 -53 -27 -98 -77 -179 -68 -273 21 -230 61 29 93
118 93 259 l0 81 45 -4 c25 -2 45 0 45 4 0 11 -36 28 -59 28 -12 0 -21 3 -21
6 0 3 16 36 36 72 51 96 76 175 64 207 -10 27 -28 33 -35 13z m-117 -460 c-17
-125 -57 -219 -74 -174 -8 20 0 51 33 141 22 60 40 95 48 95 1 0 -2 -28 -7
-62z"/>
<path d="M5018 7768 c-23 -19 -28 -44 -14 -64 12 -16 14 -16 35 5 36 36 17 89
-21 59z"/>
<path d="M3044 7655 c-3 -16 -29 -77 -56 -135 -47 -101 -57 -149 -31 -157 6
-2 21 16 32 42 37 84 187 261 180 213 -4 -30 2 -39 23 -36 14 2 26 14 33 32 8
24 6 31 -13 47 -28 22 -46 17 -96 -30 -30 -29 -37 -32 -32 -15 4 14 0 30 -13
45 l-19 24 -8 -30z"/>
<path d="M3322 7663 c-70 -34 -157 -192 -144 -260 11 -60 102 -68 171 -16 25
20 36 23 39 14 9 -27 43 -51 70 -51 34 0 121 42 150 73 26 27 53 78 46 88 -2
4 -30 -19 -63 -51 -75 -76 -141 -97 -156 -49 -10 29 11 55 55 68 58 17 130 90
130 131 0 40 -33 73 -63 64 -56 -18 -102 -68 -143 -157 -35 -78 -101 -131
-157 -125 -26 2 -33 8 -35 30 -3 24 4 30 69 65 77 40 103 68 114 120 5 24 2
36 -14 52 -25 25 -27 25 -69 4z m42 -70 c-9 -28 -99 -92 -111 -80 -8 9 45 84
76 107 33 23 49 11 35 -27z m214 11 c-3 -28 -56 -77 -95 -89 -34 -10 -28 7 23
64 51 57 77 66 72 25z"/>
<path d="M3965 7666 c-16 -7 -48 -30 -69 -50 -22 -20 -45 -36 -52 -36 -19 0
-40 -30 -27 -38 8 -5 6 -25 -8 -66 -26 -75 -15 -112 36 -122 98 -18 220 106
189 194 -7 21 -6 30 8 44 24 24 23 54 -4 72 -27 19 -34 19 -73 2z m36 -45 c-6
-10 -7 -21 -4 -25 3 -3 -11 -6 -33 -6 l-39 1 28 24 c35 31 63 34 48 6z m-1
-91 c0 -43 -53 -111 -108 -139 -55 -29 -69 49 -22 124 20 33 25 35 76 35 48 0
54 -2 54 -20z"/>
<path d="M3962 7078 c-50 -32 -55 -97 -8 -106 31 -6 56 27 56 74 0 24 -4 45
-8 48 -4 2 -22 -5 -40 -16z"/>
<path d="M3580 7030 c0 -32 21 -68 44 -74 33 -9 43 -7 50 10 9 24 -12 54 -49
70 -44 18 -45 18 -45 -6z"/>
<path d="M3766 7017 c-22 -32 -14 -80 11 -75 30 6 39 34 22 70 l-16 32 -17
-27z"/>
<path d="M3827 7004 c17 -27 58 -48 74 -38 30 18 -15 64 -63 64 -28 0 -28 0
-11 -26z"/>
<path d="M2947 6994 c-21 -22 0 -84 29 -84 26 0 27 42 2 67 -13 13 -27 20 -31
17z"/>
<path d="M4133 6983 c-13 -2 -23 -8 -23 -13 0 -14 70 -70 88 -70 30 0 55 24
48 47 -11 34 -54 47 -113 36z"/>
<path d="M4276 6974 c-17 -45 4 -78 32 -51 13 13 13 21 4 42 -13 29 -27 32
-36 9z"/>
<path d="M3435 6958 c-10 -39 -2 -63 21 -66 33 -5 38 33 9 66 l-23 27 -7 -27z"/>
<path d="M3940 6941 c18 -35 8 -145 -20 -208 -25 -58 -35 -65 -45 -30 -4 12
-19 42 -34 67 -15 25 -32 57 -38 71 -10 24 -9 26 6 22 22 -6 51 22 51 48 0 36
-69 12 -70 -24 -1 -7 -7 2 -15 18 -13 29 -13 29 -14 5 -1 -14 19 -68 44 -120
25 -52 45 -106 44 -120 0 -31 -64 -157 -72 -144 -3 6 -15 61 -26 124 -36 194
-43 224 -63 260 -10 19 -16 26 -12 15 10 -29 31 -141 39 -210 l7 -60 -51 76
c-49 74 -97 117 -154 138 -52 20 -53 11 -2 -13 28 -13 72 -47 99 -75 l48 -53
-35 -29 c-20 -16 -39 -38 -42 -49 -9 -29 12 -60 40 -60 31 0 48 31 43 81 -2
21 -2 39 0 39 2 0 16 -28 32 -62 35 -75 56 -155 69 -265 16 -128 51 -219 133
-340 l28 -42 -72 32 c-40 18 -92 50 -115 73 -37 35 -43 46 -43 83 0 24 9 79
21 124 20 79 20 139 -1 152 -6 4 -7 -6 -4 -23 4 -18 -4 -65 -19 -118 -14 -49
-28 -102 -32 -119 l-7 -30 -39 44 c-21 24 -39 41 -39 37 0 -21 37 -87 71 -128
l40 -47 -30 -15 c-16 -8 -32 -23 -35 -33 -8 -20 -40 43 -76 151 -19 55 -22 79
-17 144 3 42 11 93 18 114 11 33 14 36 43 31 36 -6 60 15 72 61 l7 28 -42 -7
c-37 -6 -40 -5 -34 12 13 38 -38 -38 -64 -93 -33 -73 -43 -221 -20 -295 l14
-47 -63 42 -63 41 25 18 c18 14 24 28 24 57 0 47 -8 70 -25 70 -19 0 -75 -67
-75 -89 0 -14 -5 -18 -20 -14 -20 5 -19 6 5 31 14 13 25 29 25 34 0 15 -31 78
-39 78 -14 -1 -44 -55 -44 -82 0 -26 -2 -27 -18 -12 -26 23 -66 85 -74 114 -6
20 -5 23 6 13 22 -22 63 -15 107 18 23 17 42 35 42 39 0 11 -65 30 -103 30
-16 0 -37 -5 -48 -10 -23 -13 -24 -7 -2 60 16 50 16 53 -2 66 -24 18 -27 18
-59 -7 -34 -27 -33 -37 8 -44 l33 -7 -14 -41 c-27 -76 2 -171 71 -241 19 -18
84 -64 145 -100 119 -72 210 -158 175 -165 -28 -5 -75 -41 -69 -52 11 -16 83
-10 93 7 18 32 92 -118 92 -186 0 -49 -11 -73 -55 -120 -18 -19 -40 -48 -48
-65 -17 -34 -19 -31 -37 55 -22 103 -42 152 -87 206 l-44 55 36 33 c19 18 35
41 35 51 0 21 -40 95 -52 95 -5 0 -20 -11 -33 -25 -27 -27 -34 -80 -14 -117 7
-12 -12 -1 -45 27 -54 47 -55 49 -35 63 11 8 25 25 30 39 10 26 2 93 -11 93
-21 0 -76 -50 -86 -78 l-10 -32 -42 36 c-23 19 -42 39 -42 44 0 4 13 10 28 13
17 4 33 16 40 32 15 33 16 85 1 85 -28 0 -79 -34 -87 -58 l-10 -27 -12 30 c-6
17 -18 49 -25 73 l-13 42 27 0 c15 0 32 5 39 12 15 15 16 88 1 88 -15 0 -53
-21 -61 -34 -10 -15 -16 -6 -18 29 -4 58 -2 63 26 57 26 -5 79 33 68 49 -8 13
-68 11 -82 -3 -35 -35 13 82 53 130 35 41 74 62 119 62 62 0 72 -11 27 -31
-35 -15 -41 -23 -41 -48 0 -35 12 -45 46 -37 18 5 27 17 36 51 15 55 23 51
107 -44 42 -47 55 -68 41 -64 -29 8 -50 -14 -50 -54 l0 -35 32 19 c18 11 35
30 39 47 7 24 2 36 -28 75 -59 73 -106 122 -135 137 -33 17 -91 18 -121 3
l-22 -12 20 23 c26 29 75 50 118 50 32 0 34 -2 29 -26 -4 -20 1 -31 19 -45 35
-27 42 -23 36 21 -3 24 -1 41 7 44 6 3 0 3 -13 0 -14 -4 -21 -2 -17 4 7 12
-57 23 -94 16 -25 -6 -27 -4 -23 20 6 28 -22 70 -38 60 -16 -9 -10 -72 7 -82
13 -7 10 -11 -15 -22 -17 -7 -49 -29 -70 -50 l-38 -37 -16 56 c-9 31 -28 72
-43 91 -15 19 -24 27 -21 18 7 -19 -7 -25 -18 -9 -3 5 -19 12 -36 16 -24 5
-39 1 -71 -21 l-40 -28 32 -29 c28 -25 39 -28 72 -24 22 3 48 13 59 23 17 16
22 16 29 4 7 -11 4 -16 -15 -18 -28 -4 -40 -17 -49 -54 -5 -24 -3 -28 14 -28
12 0 32 11 45 25 l25 24 -1 -42 c-1 -23 -4 -55 -8 -71 l-6 -29 -14 26 c-13 25
-41 42 -104 66 -32 12 -33 5 -16 -66 14 -52 58 -87 98 -78 21 5 23 3 17 -17
-16 -57 -17 -120 -2 -206 9 -52 21 -103 27 -113 5 -10 6 -19 2 -19 -13 1 -80
63 -112 104 -17 21 -31 35 -31 29 0 -5 5 -14 11 -20 7 -7 3 -9 -16 -5 -31 6
-84 -36 -63 -50 24 -15 67 -8 81 12 13 19 15 18 46 -26 45 -62 135 -149 266
-259 61 -50 124 -107 139 -126 41 -48 72 -120 96 -223 30 -132 66 -197 169
-311 50 -55 102 -122 117 -150 l27 -50 -44 45 c-25 25 -74 71 -111 102 -59 52
-72 71 -134 195 -57 114 -80 150 -135 205 -52 53 -62 68 -48 71 32 9 35 55 7
109 l-26 50 -27 -36 c-21 -28 -26 -44 -23 -71 3 -29 1 -35 -11 -30 -9 4 -36
11 -61 18 -25 6 -46 12 -48 13 -2 1 4 14 14 29 14 22 15 32 5 63 -6 20 -19 48
-30 61 l-18 24 -26 -34 c-35 -48 -39 -95 -10 -125 17 -16 13 -17 -62 -11 -44
3 -88 8 -97 12 -15 6 -15 8 3 26 13 13 19 33 19 63 l0 45 -29 -10 c-36 -13
-71 -45 -71 -67 0 -14 -3 -13 -21 5 -26 26 -36 104 -19 148 12 29 12 29 20 8
5 -12 19 -27 31 -33 21 -12 104 -9 116 4 4 3 -9 22 -27 41 -26 27 -42 35 -69
35 l-36 1 28 24 c39 35 46 79 16 111 -17 18 -25 21 -31 12 -13 -21 -9 -60 8
-79 14 -15 12 -19 -22 -39 -44 -28 -79 -98 -69 -138 4 -15 4 -25 2 -22 -7 6
-77 136 -77 142 0 2 15 2 34 0 49 -6 86 32 86 88 0 44 0 44 -52 30 -37 -11
-54 -30 -68 -79 -6 -23 -8 -20 -15 23 -12 75 1 168 34 247 36 86 30 119 -30
149 -51 26 -53 26 -46 -16 10 -61 54 -93 85 -62 7 7 12 8 12 2 0 -6 -11 -21
-25 -34 -51 -48 -86 -238 -59 -322 5 -17 -7 -10 -48 27 -43 40 -52 51 -39 56
46 18 54 65 25 138 l-17 42 -24 -23 c-37 -34 -56 -76 -48 -107 l7 -26 -32 30
c-18 17 -46 59 -63 94 -36 72 -66 92 -130 83 -36 -4 -38 -6 -32 -31 13 -51 67
-87 121 -78 23 4 34 1 38 -10 9 -23 8 -25 -13 -18 -23 7 -78 -36 -67 -53 12
-20 72 -14 87 7 13 19 16 18 57 -25 24 -24 37 -44 29 -44 -17 0 -59 -44 -50
-53 15 -15 72 -7 86 13 14 20 15 19 60 -21 51 -45 58 -59 27 -59 -24 0 -80
-27 -80 -38 0 -12 60 -42 84 -42 12 0 31 7 43 15 20 14 23 10 82 -80 34 -52
70 -100 82 -108 20 -14 20 -15 -4 -20 -13 -4 -73 -9 -134 -13 -102 -6 -114 -5
-157 16 -38 18 -116 93 -116 112 0 2 13 3 29 0 43 -6 71 35 71 104 0 65 -10
68 -72 21 -37 -29 -43 -39 -43 -70 l0 -36 -23 29 c-34 44 -86 42 -131 -4 -32
-33 -32 -33 -9 -40 31 -8 81 -7 94 2 6 4 15 16 21 26 10 17 14 13 42 -42 47
-94 83 -129 154 -150 l60 -19 -52 -42 c-42 -32 -61 -41 -92 -41 -43 0 -46 4
-24 26 34 34 10 98 -55 144 l-28 20 -11 -50 c-7 -33 -7 -58 -1 -75 l10 -26
-27 20 c-67 49 -67 51 -55 63 19 19 14 42 -12 67 l-25 23 -6 -35 c-6 -33 -3
-41 41 -92 48 -55 91 -85 163 -109 l34 -12 -38 -24 c-58 -36 -141 -37 -265 -4
-14 4 -22 4 -18 0 3 -4 -2 -16 -13 -27 -21 -21 -26 -69 -6 -69 25 0 57 31 57
57 0 19 4 24 16 19 9 -3 27 -9 40 -12 22 -6 23 -8 9 -27 -18 -26 -20 -67 -2
-67 24 0 57 31 57 54 0 20 6 24 49 29 63 7 136 44 231 117 41 31 85 62 97 68
32 17 341 15 424 -2 157 -34 224 -94 305 -278 58 -132 97 -191 260 -388 43
-52 67 -87 54 -77 -50 35 -180 95 -247 112 -37 10 -70 20 -72 21 -1 2 4 13 13
26 9 12 16 33 16 47 0 30 -48 114 -61 106 -17 -11 -49 -83 -49 -111 l0 -28
-31 30 c-36 34 -63 84 -74 134 -6 29 -5 33 6 23 22 -22 66 -15 87 12 18 22 39
111 29 121 -9 9 -99 -30 -115 -51 l-18 -23 -15 59 -15 58 26 -5 c34 -7 60 22
67 75 5 35 3 41 -13 41 -11 0 -34 -9 -51 -20 -25 -15 -33 -27 -33 -47 l0 -28
-24 30 -24 30 24 -84 c37 -130 30 -152 -41 -119 -25 11 -34 28 -15 28 6 0 15
11 21 24 9 18 7 31 -10 65 -12 22 -25 41 -29 41 -13 0 -42 -57 -42 -82 0 -13
5 -29 12 -36 7 -7 9 -12 6 -12 -13 0 -154 62 -163 72 -7 8 -6 9 2 4 20 -11 53
12 53 37 0 27 -48 100 -60 92 -19 -12 -33 -81 -21 -104 18 -32 5 -26 -49 25
-53 50 -62 49 -30 -3 25 -42 76 -75 185 -119 144 -58 170 -77 217 -158 23 -39
51 -82 62 -95 l21 -24 -50 8 c-84 12 -210 53 -315 102 -84 39 -98 48 -83 56
56 31 40 102 -36 157 l-29 20 -12 -50 c-10 -41 -9 -54 3 -79 l15 -29 -47 20
c-25 11 -77 31 -115 43 -38 12 -63 25 -57 29 22 14 11 58 -23 92 -19 19 -38
34 -44 34 -16 0 -21 -73 -7 -102 13 -28 13 -28 -23 -29 l-37 -2 35 -7 c19 -4
27 -8 18 -9 -39 -3 -68 -25 -78 -60 -17 -62 -14 -71 26 -71 49 0 94 45 94 93
l0 35 51 -16 51 -16 -39 -17 c-41 -17 -57 -42 -73 -114 l-8 -37 46 7 c87 13
141 59 128 110 -8 31 -4 31 63 -4 38 -20 49 -30 38 -34 -9 -3 -31 -30 -50 -60
-50 -78 -63 -79 -235 -26 -95 30 -178 37 -213 19 -16 -9 -19 -7 -19 8 0 23
-15 37 -53 51 -24 9 -27 8 -27 -10 0 -11 11 -31 25 -44 19 -20 31 -24 61 -20
29 3 35 2 26 -7 -7 -7 -12 -26 -12 -44 0 -27 3 -31 19 -27 30 8 54 40 48 63
-3 11 -4 20 -2 20 2 0 43 -14 92 -30 48 -17 126 -35 173 -41 47 -6 89 -14 93
-19 10 -9 -29 -104 -49 -121 -11 -9 -14 -7 -14 14 0 14 -11 38 -24 53 -20 24
-32 28 -90 32 -37 3 -72 0 -77 -5 -10 -10 46 -96 78 -118 10 -7 35 -15 54 -17
l34 -3 -80 -50 c-44 -27 -97 -65 -118 -84 -40 -36 -77 -97 -77 -127 0 -13 -3
-14 -14 -5 -17 14 -41 5 -70 -27 -18 -20 -17 -21 18 -27 24 -5 42 -3 51 5 9 7
17 11 18 9 2 -2 14 -19 26 -36 29 -43 47 -43 21 0 -28 46 -25 53 12 22 26 -22
38 -26 67 -21 20 3 46 6 59 6 32 0 27 21 -16 63 -42 42 -91 50 -124 20 -10 -9
-18 -11 -18 -5 0 40 62 122 111 148 l28 14 -20 -34 c-26 -45 -17 -78 30 -115
l37 -30 18 30 c25 41 14 90 -26 124 -17 14 -29 27 -27 29 2 2 24 16 49 31 58
36 98 73 117 110 l16 30 13 -64 c7 -34 24 -77 37 -95 13 -17 36 -54 50 -83
l26 -51 -28 11 c-23 8 -33 7 -54 -9 -28 -21 -51 -53 -43 -61 3 -3 25 -8 49
-10 38 -5 46 -2 64 21 l21 26 6 -23 c10 -37 7 -48 -12 -45 -28 4 -52 -20 -52
-53 0 -31 10 -35 42 -18 17 9 19 8 15 -8 -3 -10 -8 -34 -12 -53 -6 -35 -6 -35
12 -14 10 12 24 30 30 40 7 11 12 15 12 9 -6 -51 38 -79 111 -69 28 4 53 11
56 16 3 5 -13 27 -35 50 -38 37 -45 40 -84 36 l-42 -5 0 57 c-1 48 -8 73 -45
146 -25 49 -47 93 -49 97 -1 5 8 -3 23 -17 30 -31 73 -33 131 -8 l39 18 -48
37 c-59 45 -97 48 -131 12 -27 -30 -29 -27 -50 51 -16 64 -21 186 -5 147 16
-40 54 -56 115 -48 30 3 57 10 59 14 3 4 -13 26 -36 49 -42 44 -78 53 -119 32
-22 -12 -23 -10 -7 26 29 63 96 61 231 -8 l82 -42 -34 -7 c-42 -9 -55 -23 -75
-83 -25 -76 -25 -76 47 -60 75 17 111 50 105 98 l-3 31 82 -30 c81 -29 103
-45 63 -45 -35 0 -124 -39 -163 -71 -21 -17 -50 -54 -65 -83 -23 -44 -27 -63
-27 -136 0 -92 19 -144 66 -185 l23 -20 -23 33 c-31 45 -51 114 -50 176 l1 51
15 -35 c20 -47 40 -59 93 -60 66 0 75 9 47 51 -29 44 -63 61 -109 55 -21 -2
-38 0 -38 6 0 25 63 108 82 108 4 0 8 -12 8 -27 0 -16 8 -40 18 -54 9 -14 32
-49 51 -77 19 -29 36 -52 38 -52 9 0 -12 56 -38 103 -16 29 -29 60 -29 70 0
15 2 15 20 -3 20 -20 37 -24 100 -20 58 3 63 12 30 52 -37 45 -89 65 -122 47
-22 -11 -22 -11 -5 7 15 17 33 19 135 19 97 0 125 -4 162 -21 132 -62 245
-215 285 -388 18 -75 53 -409 58 -555 11 -278 -32 -506 -135 -708 l-46 -93
316 0 316 0 -31 33 c-57 58 -78 152 -93 419 -6 101 -15 228 -20 283 -22 218
-24 414 -6 505 34 168 118 323 240 446 90 90 146 124 204 124 47 0 66 -18 88
-84 18 -53 14 -80 -17 -120 l-22 -28 -13 30 c-9 21 -23 33 -46 40 -35 9 -105
5 -113 -8 -8 -13 80 -100 101 -100 15 0 7 -13 -38 -60 -82 -86 -94 -152 -36
-189 18 -11 19 -10 13 9 -6 19 -5 21 13 11 48 -26 96 -10 123 41 15 28 -2 43
-53 43 -34 0 -45 -6 -69 -35 -33 -40 -38 -26 -10 29 17 33 128 141 145 141 3
0 6 -8 6 -17 0 -10 6 -25 13 -34 12 -15 91 -69 102 -69 9 0 5 88 -5 114 -5 15
-22 32 -37 38 -16 7 -29 13 -31 14 -2 1 4 16 12 33 9 16 16 40 16 53 1 15 16
-7 46 -64 25 -48 63 -106 84 -130 l38 -44 -29 -16 c-43 -25 -55 -58 -39 -112
l12 -45 38 19 c42 21 50 36 50 87 l0 35 49 -44 48 -43 -28 -17 c-15 -9 -30
-29 -34 -46 -7 -35 11 -112 27 -112 5 0 28 18 50 40 35 34 40 45 34 70 -3 17
-4 30 -3 30 1 -1 27 -9 57 -20 40 -14 50 -20 38 -25 -12 -5 -18 -18 -18 -36 0
-22 8 -34 38 -53 20 -13 41 -20 46 -16 14 14 -3 79 -27 95 -21 15 -21 15 13
16 19 0 44 4 55 9 16 7 11 9 -21 9 -143 3 -331 162 -454 386 -66 120 -135 209
-171 220 -30 10 -14 23 57 45 85 26 156 26 210 0 50 -25 70 -54 25 -39 -34 12
-65 1 -110 -37 l-33 -27 34 -18 c41 -23 111 -25 128 -4 28 33 20 3 -19 -72
-23 -44 -41 -86 -41 -94 1 -8 7 0 14 16 8 17 21 39 30 50 15 20 15 20 16 -3 0
-14 12 -29 33 -42 49 -30 60 -27 53 18 -7 40 -41 76 -63 68 -17 -7 -17 -2 7
36 11 18 20 42 20 53 1 17 4 16 25 -10 14 -16 31 -48 39 -70 8 -22 15 -33 15
-25 0 8 -6 31 -12 50 l-13 36 32 -4 c17 -2 44 3 60 11 l28 15 -34 21 c-41 25
-58 26 -86 6 -19 -13 -23 -12 -43 16 l-22 29 38 -4 c21 -3 64 -8 96 -11 32 -3
73 -13 90 -21 l31 -16 -32 -14 c-29 -12 -46 -38 -67 -104 -7 -22 -6 -23 39
-17 62 9 85 22 100 58 l13 30 15 -23 c24 -38 38 -88 38 -137 -1 -36 -3 -42
-11 -28 -13 23 -56 22 -96 -3 -18 -11 -33 -22 -33 -25 0 -2 13 -11 30 -20 39
-20 86 -19 99 3 9 15 10 14 11 -6 0 -12 -7 -39 -15 -60 -12 -29 -12 -33 -1
-19 12 15 14 16 20 2 3 -8 17 -20 31 -27 20 -9 32 -8 65 7 22 10 40 21 40 25
0 3 -18 17 -41 29 -27 16 -48 21 -66 16 -23 -5 -25 -4 -19 17 3 13 6 39 6 58
l1 35 14 -26 c20 -36 63 -52 119 -44 l46 7 -18 30 c-39 68 -110 99 -145 63
-13 -13 -17 -9 -27 35 -27 113 -110 187 -220 197 l-59 6 19 27 c21 30 18 40
-15 40 -26 0 -60 -34 -50 -49 10 -18 -25 -12 -104 18 -68 26 -72 29 -47 35 15
4 83 6 149 5 199 -2 189 -4 218 31 l26 30 64 -20 c35 -11 80 -29 99 -39 31
-17 37 -17 66 -4 30 15 74 76 74 103 0 9 -15 11 -55 8 -61 -5 -95 -28 -95 -64
l0 -23 -64 24 c-36 13 -104 34 -153 46 -48 12 -92 24 -97 26 -4 3 25 23 65 44
49 26 75 35 78 27 11 -34 51 -58 96 -58 l46 0 -23 41 c-14 25 -34 46 -51 52
l-28 9 22 24 c21 23 24 23 32 7 5 -10 17 -24 25 -30 18 -14 102 -18 102 -4 0
4 -10 23 -23 42 -16 24 -32 35 -56 39 l-34 5 41 52 c49 61 67 75 50 39 -8 -19
-8 -32 0 -51 11 -23 86 -85 104 -85 4 0 8 26 8 58 0 49 -4 62 -24 81 -13 12
-33 23 -45 24 -21 1 -21 2 -5 14 10 7 14 13 10 13 -17 0 -64 -31 -95 -64 -19
-20 -38 -36 -42 -36 -4 0 -14 12 -21 28 l-14 27 37 0 c28 0 46 8 69 30 16 16
30 31 30 35 0 13 -60 40 -88 40 -34 0 -94 -44 -86 -63 3 -9 -10 -11 -46 -9
-49 4 -50 3 -50 -25 1 -57 47 -88 118 -77 l47 7 -20 -23 c-40 -44 -144 -121
-202 -147 -54 -25 -71 -27 -243 -34 -155 -5 -201 -11 -284 -33 -55 -15 -103
-29 -108 -32 -4 -3 -8 -3 -8 0 0 13 110 173 134 195 l26 24 0 -26 c0 -34 34
-65 79 -72 20 -4 47 -8 60 -11 21 -5 23 -3 16 23 -11 44 -53 93 -87 100 l-30
6 23 13 c14 8 56 13 99 14 70 0 73 -1 52 -16 -43 -30 -24 -85 45 -132 47 -33
53 -29 53 33 0 46 -4 60 -25 81 -25 25 -25 25 -3 19 34 -10 100 -42 128 -62
l25 -17 -24 27 c-61 67 -192 113 -296 104 l-60 -6 60 35 c71 40 107 51 197 58
85 8 100 2 86 -30 -16 -33 1 -66 53 -104 23 -16 46 -30 51 -30 4 0 8 26 8 57
0 44 -5 62 -22 80 l-21 23 39 1 c37 1 35 2 -21 15 -33 8 -94 15 -135 16 l-75
3 65 67 c42 44 78 72 100 78 44 13 114 4 213 -27 44 -13 81 -23 83 -20 2 2
-41 21 -96 43 -55 21 -100 42 -100 45 0 4 9 9 20 12 33 9 54 100 31 136 -8 12
-14 12 -38 -4 -54 -34 -73 -58 -73 -90 0 -17 5 -36 10 -41 8 -8 2 -11 -20 -12
-40 -1 -71 -11 -92 -30 -29 -24 -21 -5 24 61 52 77 150 181 201 214 58 37 38
39 -24 3 -70 -41 -101 -70 -158 -150 l-46 -65 -3 85 c-2 47 2 112 8 145 12 59
46 135 62 135 4 0 8 5 8 10 0 24 -43 -19 -65 -65 -28 -59 -32 -81 -44 -238 -8
-103 -13 -127 -41 -183 -17 -35 -34 -64 -38 -64 -4 0 -15 18 -24 40 -10 24
-23 40 -33 40 -14 0 -14 4 4 26 12 15 21 33 21 41 0 11 -6 8 -19 -8 -16 -20
-30 -23 -132 -30 -63 -4 -127 -10 -144 -15 -27 -7 -29 -6 -16 9 7 9 48 38 90
63 84 51 131 91 131 111 0 10 -10 6 -32 -10 -18 -13 -55 -37 -83 -53 -40 -22
-47 -24 -32 -8 21 26 21 50 -1 92 -17 31 -19 32 -34 15 -19 -22 -38 -58 -38
-73 0 -6 11 -22 24 -35 l24 -24 -32 -20 c-30 -19 -87 -88 -98 -121 -5 -12 -7
-11 -13 5 -4 11 -23 59 -41 106 -19 48 -34 100 -34 117 0 40 34 67 102 82 58
12 118 46 230 132 67 51 78 56 78 38 0 -12 5 -31 11 -42 9 -17 6 -25 -20 -52
-40 -41 -42 -88 -6 -112 23 -15 27 -15 51 1 22 14 25 22 22 58 -3 23 -8 51
-13 61 -7 17 -5 18 29 12 36 -7 37 -7 30 21 -10 43 -32 72 -60 79 -25 6 -25 7
13 31 21 13 29 21 17 18 -18 -5 -21 -1 -21 27 0 24 -8 39 -33 60 -39 32 -50
25 -50 -34 0 -27 6 -42 25 -56 l25 -20 -100 -66 c-55 -37 -107 -69 -117 -73
-20 -8 -15 2 44 79 24 32 57 83 73 113 28 54 33 70 45 165 9 68 14 73 63 53
33 -13 47 -14 67 -5 22 10 65 65 65 83 0 3 -17 12 -38 18 -42 14 -72 5 -119
-37 -25 -21 -62 -96 -63 -124 0 -24 -3 -23 -41 12 -38 34 -49 27 -49 -31 0
-38 24 -69 53 -69 16 0 16 -3 2 -37 -20 -47 -116 -192 -147 -219 -20 -19 -153
-74 -177 -74 -11 0 2 68 18 100 7 14 41 54 75 89 l61 64 -55 -31 c-64 -35 -94
-74 -117 -151 -21 -74 -13 -183 22 -286 16 -45 29 -110 32 -150 4 -66 3 -69
-11 -44 -15 25 -103 76 -113 65 -9 -8 7 -92 20 -111 7 -9 29 -20 47 -24 l35
-7 -34 -32 c-36 -32 -114 -74 -164 -86 -24 -6 -28 -4 -23 11 11 39 66 280 72
321 5 34 9 39 18 28 12 -16 58 -36 82 -36 21 0 17 33 -7 65 -17 21 -28 26 -50
23 l-29 -5 0 63 c0 57 2 63 22 66 25 3 52 48 39 61 -9 9 -51 -9 -63 -26 -11
-18 -23 83 -23 193 0 95 3 111 28 162 28 58 113 145 168 173 27 14 28 14 41
-12 7 -14 25 -35 39 -46 26 -19 29 -19 78 -2 l51 17 -17 28 c-21 36 -61 54
-107 48 l-35 -4 35 38 c46 51 43 59 -6 14 -22 -19 -68 -50 -102 -67 -35 -17
-78 -42 -95 -56 l-33 -24 0 33 c0 21 16 60 45 107 45 74 61 122 53 158 -3 12
-9 3 -17 -25 -9 -33 -59 -125 -108 -201 -1 -2 -14 6 -29 18 -38 30 -63 28 -56
-5 6 -33 47 -61 66 -45 11 10 13 3 8 -36 -6 -59 -7 -60 -30 -40 -19 18 -106
24 -116 9 -3 -4 9 -22 25 -40 23 -24 39 -32 65 -32 38 0 38 1 24 -36 -6 -15
-12 -76 -12 -136 -1 -59 -3 -107 -4 -105 -1 1 -34 42 -73 92 -79 100 -91 137
-72 225 15 68 31 97 92 167 28 32 65 82 81 110 16 29 34 56 39 59 12 7 11 35
0 53 -8 13 -12 13 -26 1 -12 -10 -15 -23 -11 -49 l5 -35 -18 30 c-11 17 -32
41 -49 53 l-30 21 -6 -35 c-10 -53 11 -90 51 -90 38 0 38 1 -59 -102 -129
-135 -154 -255 -81 -384 2 -3 -10 -4 -27 -1 -31 4 -90 -14 -90 -28 0 -15 67
-50 93 -50 15 0 32 9 40 20 14 21 15 20 44 -17 17 -21 38 -51 49 -68 l18 -30
-20 18 c-21 17 -69 22 -111 11 -31 -8 -29 -16 11 -59 29 -30 41 -36 68 -33 22
2 36 10 44 26 l11 23 7 -23 c9 -36 7 -121 -4 -138 -9 -12 -19 -6 -56 35 -102
112 -233 309 -234 351 0 6 12 9 28 6 18 -2 35 2 45 12 17 17 34 83 24 92 -3 4
-22 1 -42 -6 -25 -8 -41 -22 -51 -44 -15 -30 -15 -29 -10 34 5 55 17 87 75
205 83 165 99 220 82 275 -6 20 -19 44 -28 51 -15 13 -15 12 -3 -10z m-108
-937 c24 -7 22 -15 -7 -37 -21 -15 -25 -15 -25 -3 0 18 -38 46 -63 46 -16 0
-18 -5 -13 -27 9 -34 35 -56 59 -49 14 3 17 1 12 -12 -4 -9 -9 -33 -12 -52
l-5 -35 23 45 c30 57 83 94 124 86 17 -3 44 -21 62 -40 43 -47 50 -99 28 -226
l-18 -101 -23 22 c-12 11 -41 23 -64 26 l-41 6 16 -39 c21 -51 37 -66 69 -66
31 0 31 -2 -17 -118 -17 -41 -47 -93 -67 -114 -49 -53 -72 -46 -168 52 -71 71
-75 77 -52 80 36 5 50 20 50 53 0 16 5 29 10 29 6 0 10 -4 10 -8 0 -4 13 -23
30 -42 27 -33 26 -30 -12 45 -22 44 -50 90 -62 103 -17 20 -18 24 -6 32 8 5
40 10 70 10 129 0 200 25 200 68 0 12 -4 11 -21 -4 -17 -15 -40 -19 -126 -22
l-105 -4 12 22 c19 36 6 108 -33 188 l-35 72 23 0 c27 0 45 26 45 64 l0 25 57
-35 c31 -18 65 -36 75 -40z m738 -188 c0 -52 40 -86 103 -86 l50 0 -7 33 c-3
17 -17 42 -32 55 l-25 22 35 0 c31 0 36 -3 36 -23 0 -28 24 -52 63 -61 25 -6
27 -9 16 -22 -7 -9 -66 -42 -130 -75 -65 -32 -133 -72 -152 -89 -40 -35 -47
-37 -47 -12 0 21 -65 88 -73 75 -2 -4 -8 -23 -12 -41 -8 -37 15 -82 40 -82 23
0 18 -11 -24 -63 -38 -45 -39 -46 -45 -22 -3 13 -23 36 -44 50 l-37 25 -8 -29
c-10 -40 7 -80 42 -94 l29 -12 -33 -37 c-28 -30 -36 -34 -46 -22 -17 20 -40
18 -32 -3 4 -10 11 -22 17 -26 7 -5 -5 -22 -33 -47 -47 -44 -149 -105 -158
-97 -11 11 -7 183 5 219 16 45 87 113 167 158 80 46 137 105 176 182 42 85 75
127 113 144 44 19 46 18 46 -20z m-888 -240 c23 -28 23 -29 -17 -50 -26 -14
-35 -26 -36 -45 -1 -23 -2 -22 -20 14 -48 101 7 163 73 81z m1273 -265 c121
-14 224 -35 195 -39 -30 -4 -51 -28 -43 -49 5 -13 1 -15 -23 -8 -140 36 -243
42 -365 20 -146 -25 -246 -67 -439 -181 l-45 -27 55 57 c73 76 169 148 254
191 80 41 101 44 93 15 -6 -24 15 -27 33 -5 9 11 16 13 24 5 18 -18 38 -12 31
10 -6 19 -2 20 72 20 43 0 114 -4 158 -9z"/>
<path d="M3931 5884 c-11 -14 -23 -34 -26 -45 -8 -23 19 -69 39 -69 17 0 46
32 46 52 0 17 -28 88 -34 88 -3 0 -14 -12 -25 -26z"/>
<path d="M3820 5802 c0 -40 45 -83 70 -67 14 9 13 40 -3 53 -19 16 -67 26 -67
14z"/>
<path d="M3862 5458 c-21 -21 -14 -48 12 -48 25 0 60 36 50 52 -8 12 -48 10
-62 -4z"/>
<path d="M3783 5423 c-19 -7 -16 -37 5 -55 36 -31 42 -31 42 6 0 36 -22 58
-47 49z"/>
<path d="M4459 5759 c-14 -28 13 -57 64 -69 42 -9 47 2 22 49 -23 45 -67 55
-86 20z"/>
<path d="M4142 5428 c-35 -35 15 -74 79 -61 l42 8 -31 33 c-31 33 -68 42 -90
20z"/>
<path d="M4164 5294 c-8 -32 5 -58 33 -62 30 -4 38 27 15 57 -26 35 -40 37
-48 5z"/>
<path d="M5020 5281 c0 -10 41 -43 47 -38 1 2 0 13 -4 25 -5 21 -43 32 -43 13z"/>
<path d="M4437 6930 c-26 -43 -21 -76 16 -117 37 -39 49 -38 72 7 19 37 5 80
-39 114 l-33 24 -16 -28z"/>
<path d="M3528 6926 c-14 -31 -4 -56 21 -56 24 0 36 32 21 60 -14 27 -28 25
-42 -4z"/>
<path d="M3050 6927 c-32 -16 -36 -64 -5 -59 24 4 45 29 45 54 0 21 -6 22 -40
5z"/>
<path d="M3621 6904 c-36 -46 -19 -104 28 -89 23 7 33 41 23 80 -11 39 -26 41
-51 9z"/>
<path d="M3301 6899 c-37 -22 -34 -30 20 -53 28 -12 40 -12 60 -3 30 16 37 47
13 64 -25 18 -54 16 -93 -8z"/>
<path d="M4788 6895 c-36 -33 -43 -64 -24 -109 17 -41 32 -45 70 -15 19 15 26
30 26 54 0 30 -27 95 -40 95 -3 0 -17 -11 -32 -25z"/>
<path d="M4250 6885 c-13 -16 -6 -65 10 -65 5 0 17 11 26 25 13 20 14 28 4 40
-16 19 -24 19 -40 0z"/>
<path d="M3840 6826 c0 -4 7 -22 14 -41 11 -26 21 -35 39 -35 14 0 27 7 31 15
6 15 -26 55 -43 55 -5 0 -16 3 -25 6 -9 3 -16 3 -16 0z"/>
<path d="M4372 6784 c2 -37 9 -51 28 -66 44 -32 81 3 56 51 -11 19 -67 61 -82
61 -3 0 -4 -21 -2 -46z"/>
<path d="M3990 6782 c0 -51 24 -84 58 -80 22 2 28 9 30 35 3 25 -3 36 -31 57
-46 35 -57 33 -57 -12z"/>
<path d="M3411 6774 c-13 -10 -21 -26 -21 -45 0 -27 3 -30 23 -23 34 10 47 24
47 49 0 29 -22 38 -49 19z"/>
<path d="M4190 6772 c0 -23 19 -42 42 -42 24 0 23 36 -1 50 -29 15 -41 12 -41
-8z"/>
<path d="M4516 6774 c-20 -20 -20 -29 1 -49 19 -19 83 -16 109 6 13 11 10 16
-23 36 -45 27 -66 29 -87 7z"/>
<path d="M3477 6773 c-12 -11 -8 -50 6 -61 14 -11 89 -33 95 -28 8 9 -28 75
-46 85 -23 12 -46 14 -55 4z"/>
<path d="M4670 6715 c0 -20 38 -57 50 -50 17 10 11 44 -9 55 -27 14 -41 13
-41 -5z"/>
<path d="M3760 6686 c0 -59 61 -92 68 -37 3 17 -5 31 -25 47 -38 31 -43 30
-43 -10z"/>
<path d="M4310 6699 c0 -23 22 -49 40 -49 26 0 27 36 1 50 -25 13 -41 13 -41
-1z"/>
<path d="M2742 6670 c-44 -27 -58 -60 -42 -100 17 -41 24 -44 59 -25 48 24 66
79 41 126 -13 24 -17 24 -58 -1z"/>
<path d="M3490 6600 c0 -26 36 -62 58 -58 26 5 27 44 0 62 -32 22 -58 21 -58
-4z"/>
<path d="M4343 6585 c-14 -11 -15 -17 -5 -39 6 -14 23 -28 37 -32 14 -3 25 -8
25 -10 0 -2 -11 -20 -25 -40 -29 -43 -30 -52 -9 -82 21 -30 52 -28 66 4 10 20
9 34 -5 70 -14 38 -14 44 -2 44 20 0 19 19 -4 56 -22 36 -53 47 -78 29z"/>
<path d="M2392 6540 c-43 -26 -55 -59 -39 -107 15 -45 23 -48 63 -24 41 25 49
61 27 111 l-18 40 -33 -20z"/>
<path d="M2806 6514 c-25 -66 30 -144 72 -102 21 21 13 53 -21 86 -38 37 -43
38 -51 16z"/>
<path d="M4842 6505 c-31 -39 -36 -63 -18 -90 19 -29 38 -32 60 -9 21 20 20
51 -3 93 l-18 33 -21 -27z"/>
<path d="M4503 6490 c-56 -33 -56 -101 0 -108 34 -4 57 30 57 85 0 49 -9 53
-57 23z"/>
<path d="M2536 6471 c-10 -15 51 -60 74 -54 22 6 27 32 8 51 -14 14 -74 16
-82 3z"/>
<path d="M4226 6403 c8 -58 27 -91 60 -103 49 -19 86 24 63 73 -11 24 -61 58
-106 71 -22 7 -23 5 -17 -41z"/>
<path d="M4025 6407 c10 -46 23 -67 48 -76 30 -12 57 5 57 33 0 29 -14 41 -69
61 l-43 15 7 -33z"/>
<path d="M4912 6417 c-20 -21 -22 -29 -13 -46 19 -34 59 -38 110 -9 25 13 46
29 48 35 4 12 -37 31 -85 39 -31 5 -41 2 -60 -19z"/>
<path d="M2931 6419 c-13 -5 -30 -17 -37 -27 -10 -14 -9 -19 6 -29 24 -17 49
-7 56 23 9 34 2 43 -25 33z"/>
<path d="M3570 6384 c-29 -46 -19 -87 23 -92 39 -5 55 33 36 84 -19 50 -32 52
-59 8z"/>
<path d="M2675 6386 c-33 -33 -30 -65 8 -86 24 -13 30 -13 54 0 28 16 89 87
82 95 -3 2 -30 7 -61 11 -52 6 -58 4 -83 -20z"/>
<path d="M5055 6340 c-17 -19 -17 -21 0 -40 10 -11 31 -20 46 -20 30 0 79 19
79 30 0 9 -75 50 -92 50 -8 0 -23 -9 -33 -20z"/>
<path d="M5202 6315 c-31 -39 -36 -63 -18 -90 19 -29 38 -32 60 -9 21 20 20
51 -3 93 l-18 33 -21 -27z"/>
<path d="M4438 6303 c-30 -35 -38 -61 -28 -88 12 -31 32 -40 59 -25 25 13 27
46 7 95 -17 40 -18 41 -38 18z"/>
<path d="M4180 6271 c0 -35 17 -50 66 -58 37 -6 37 -6 30 23 -11 41 -35 64
-68 64 -24 0 -28 -4 -28 -29z"/>
<path d="M2902 6240 c-6 -11 -12 -31 -12 -44 0 -14 -4 -28 -10 -31 -16 -10
-11 -33 12 -55 32 -29 40 -25 37 20 -2 21 0 42 4 46 14 14 4 84 -12 84 -3 0
-12 -9 -19 -20z"/>
<path d="M5319 6249 c-33 -12 -53 -53 -39 -79 27 -50 92 -53 151 -7 23 17 44
37 46 43 8 25 -117 58 -158 43z"/>
<path d="M5062 6194 c-31 -21 -29 -62 3 -70 15 -4 32 -1 41 7 14 12 44 61 44
74 0 12 -67 4 -88 -11z"/>
<path d="M2291 6163 c-36 -37 -41 -83 -13 -124 20 -31 49 -26 76 13 22 31 20
56 -8 102 l-24 40 -31 -31z"/>
<path d="M3775 6166 c-29 -29 -30 -53 -3 -69 34 -22 65 41 39 82 -7 11 -14 9
-36 -13z"/>
<path d="M4609 6121 c-11 -37 -11 -47 2 -70 17 -30 43 -38 64 -21 24 20 17 54
-19 96 l-34 39 -13 -44z"/>
<path d="M5228 6149 c-18 -10 -24 -52 -12 -84 4 -8 27 -30 51 -47 54 -37 66
-28 60 45 -6 68 -56 111 -99 86z"/>
<path d="M2100 6053 l-41 -36 28 -18 c15 -11 42 -19 58 -19 36 0 95 34 95 55
0 17 -56 55 -82 55 -10 0 -36 -16 -58 -37z"/>
<path d="M4350 6059 c-15 -27 9 -55 58 -69 43 -11 46 -9 38 25 -14 57 -75 85
-96 44z"/>
<path d="M4801 6041 c-12 -16 -21 -38 -21 -49 0 -23 25 -52 45 -52 17 0 45 27
45 44 0 22 -30 86 -39 86 -6 0 -19 -13 -30 -29z"/>
<path d="M5253 5949 c-25 -38 -26 -43 -12 -67 37 -67 94 -19 69 58 -8 23 -17
43 -21 46 -5 3 -21 -14 -36 -37z"/>
<path d="M2509 5943 c-30 -49 -30 -100 0 -124 13 -11 31 -19 42 -19 21 0 49
36 49 64 0 16 -56 116 -65 116 -2 0 -14 -17 -26 -37z"/>
<path d="M4746 5944 c-4 -10 -1 -24 8 -33 14 -13 16 -13 22 3 4 10 1 24 -8 33
-14 13 -16 13 -22 -3z"/>
<path d="M2030 5900 c0 -40 36 -77 84 -85 45 -9 65 -1 61 22 -2 10 -4 24 -4
31 -1 7 -12 24 -26 37 -18 19 -35 25 -70 25 -44 0 -45 -1 -45 -30z"/>
<path d="M2642 5907 c-28 -30 -28 -34 5 -40 38 -7 65 9 61 36 -4 31 -39 33
-66 4z"/>
<path d="M3483 5908 c-24 -5 -43 -13 -43 -17 0 -13 65 -70 93 -80 42 -16 77 1
77 39 0 50 -52 74 -127 58z"/>
<path d="M5374 5892 c-6 -4 -16 -17 -22 -28 -15 -29 6 -59 36 -52 18 5 20 3
13 -10 -18 -36 14 -72 66 -72 33 0 103 28 103 41 0 18 -91 61 -119 57 l-28 -4
13 33 c8 18 14 35 14 38 0 8 -63 6 -76 -3z"/>
<path d="M5136 5789 c-31 -36 -33 -59 -7 -90 18 -22 19 -22 45 -6 14 10 26 27
26 38 0 21 -26 89 -34 89 -2 0 -16 -14 -30 -31z"/>
<path d="M5027 5784 c-25 -34 -16 -77 16 -72 26 4 36 53 15 80 -12 16 -14 15
-31 -8z"/>
<path d="M2706 5707 c-22 -33 -17 -61 11 -65 28 -4 39 29 20 64 l-14 27 -17
-26z"/>
<path d="M2057 5683 c-7 -35 8 -63 34 -63 27 0 35 27 16 59 -22 36 -43 38 -50
4z"/>
<path d="M2920 5698 c-25 -5 -49 -13 -53 -17 -4 -4 13 -26 37 -49 37 -34 53
-42 84 -42 76 0 93 61 29 101 -35 21 -34 21 -97 7z"/>
<path d="M5503 5690 c-44 -18 -38 -68 13 -109 19 -15 41 -21 80 -21 85 0 89 5
51 57 -48 67 -97 92 -144 73z"/>
<path d="M2170 5666 c-12 -33 3 -69 28 -64 25 5 27 51 3 72 -20 18 -21 18 -31
-8z"/>
<path d="M1960 5673 c-8 -2 -34 -11 -57 -19 -53 -19 -48 -35 21 -69 56 -27 87
-25 115 9 28 34 -31 92 -79 79z"/>
<path d="M2497 5623 c-10 -10 -8 -52 3 -73 11 -21 67 -40 118 -40 37 0 37 1
16 43 -28 56 -54 77 -94 77 -20 0 -40 -3 -43 -7z"/>
<path d="M2207 5439 c-26 -17 -49 -35 -52 -40 -8 -12 48 -38 99 -45 39 -6 48
-3 70 19 31 31 33 50 6 77 -28 28 -69 25 -123 -11z"/>
<path d="M5010 5443 c1 -24 50 -53 50 -30 0 7 -5 18 -12 25 -13 13 -38 16 -38
5z"/>
<path d="M2911 5401 c-6 -11 -11 -31 -11 -44 0 -20 4 -24 19 -20 28 7 53 38
49 60 -5 26 -44 29 -57 4z"/>
<path d="M3005 5320 c-25 -26 -27 -32 -15 -40 23 -15 96 -12 110 4 6 8 10 25
8 38 -2 18 -10 24 -38 26 -29 2 -41 -3 -65 -28z"/>
<path d="M2067 5190 c-27 -22 -67 -80 -67 -99 0 -7 22 -11 59 -11 48 0 65 4
85 23 35 32 41 62 17 86 -27 27 -61 27 -94 1z"/>
<path d="M5472 5188 c-32 -32 9 -83 57 -71 30 7 71 32 71 42 0 11 -68 41 -93
41 -13 0 -28 -5 -35 -12z"/>
<path d="M5147 5183 c-14 -13 -6 -42 15 -57 31 -22 38 -20 38 12 0 39 -32 67
-53 45z"/>
<path d="M5227 5183 c-15 -14 -6 -43 17 -58 24 -16 96 -12 96 4 0 4 -13 19
-28 34 -26 25 -70 36 -85 20z"/>
<path d="M5403 5163 c-15 -5 -18 -59 -4 -67 13 -8 43 30 39 50 -3 19 -16 25
-35 17z"/>
<path d="M5442 5098 c-25 -25 -14 -74 23 -110 20 -18 41 -33 48 -33 6 0 16 22
21 48 7 42 6 53 -11 75 -22 30 -61 40 -81 20z"/>
<path d="M5292 4998 c-17 -17 -15 -33 5 -49 20 -17 50 -13 87 14 l28 20 -23
13 c-30 17 -81 18 -97 2z"/>
<path d="M2283 4942 l-33 -17 23 -27 c32 -39 69 -50 114 -35 46 15 51 35 19
70 -30 32 -74 35 -123 9z"/>
<path d="M4774 4919 c-7 -12 15 -31 31 -26 6 2 11 11 13 20 4 19 -32 24 -44 6z"/>
<path d="M2553 4884 c-15 -31 -16 -38 -3 -61 8 -14 29 -37 47 -50 l32 -25 17
35 c19 40 14 71 -17 110 -29 38 -56 35 -76 -9z"/>
<path d="M5010 4886 c0 -14 36 -46 52 -46 15 0 8 27 -10 43 -23 21 -42 22 -42
3z"/>
<path d="M4841 4807 c-30 -30 21 -87 77 -87 20 0 22 4 17 23 -17 56 -68 90
-94 64z"/>
<path d="M2220 4800 c-13 -9 -12 -13 9 -30 28 -24 54 -26 71 -5 27 33 -40 61
-80 35z"/>
<path d="M4971 4786 c-13 -15 -5 -66 10 -66 5 0 16 11 25 25 13 20 14 28 4 40
-15 19 -24 19 -39 1z"/>
<path d="M4272 4771 l-23 -6 28 -42 c32 -50 73 -70 111 -57 37 13 43 66 10 87
-28 18 -94 27 -126 18z"/>
<path d="M3147 4703 c-19 -18 9 -113 33 -113 6 0 18 15 27 34 15 32 15 37 -1
60 -16 25 -45 34 -59 19z"/>
<path d="M5158 4640 c-17 -10 -44 -87 -35 -97 3 -2 24 1 46 7 29 7 46 19 53
36 21 45 -21 79 -64 54z"/>
<path d="M5269 4591 c-45 -46 -34 -91 22 -91 45 0 59 10 84 61 14 27 25 51 25
54 0 3 -23 5 -51 5 -43 0 -55 -5 -80 -29z"/>
<path d="M2276 4594 c-14 -14 -23 -74 -11 -74 2 0 15 5 29 12 30 13 42 43 26
63 -16 19 -25 19 -44 -1z"/>
<path d="M2402 4578 c-22 -22 -14 -66 15 -85 29 -19 98 -21 142 -5 24 8 24 9
-21 55 -38 41 -50 47 -84 47 -22 0 -45 -5 -52 -12z"/>
<path d="M3102 4554 c-29 -20 -28 -39 4 -71 23 -23 31 -25 84 -21 33 2 62 7
66 11 9 8 -35 61 -68 81 -33 20 -57 20 -86 0z"/>
<path d="M4346 4511 c-15 -16 -17 -30 -11 -70 4 -28 10 -53 14 -56 4 -2 24 10
44 26 29 24 37 38 37 63 0 17 -5 37 -12 44 -18 18 -53 14 -72 -7z"/>
<path d="M4459 4499 c-16 -31 6 -67 50 -79 43 -12 91 -13 91 -2 0 13 -41 77
-58 90 -26 20 -70 15 -83 -9z"/>
<path d="M5230 4468 c0 -13 4 -28 8 -35 9 -14 56 -33 82 -33 17 0 18 3 9 27
-16 42 -39 63 -71 63 -22 0 -28 -4 -28 -22z"/>
<path d="M2708 4463 c-8 -10 -18 -35 -22 -55 -6 -32 -4 -38 11 -38 10 0 33 9
51 20 28 17 33 25 30 53 -2 26 -8 33 -29 35 -15 2 -31 -4 -41 -15z"/>
<path d="M469 3013 c0 -126 -1 -853 -2 -1618 l-1 -1390 3472 -3 3472 -2 2 72
c1 40 1 96 1 123 0 28 -1 724 -2 1548 l-1 1497 -1590 0 c-874 0 -1590 -2
-1590 -5 0 -12 68 -113 101 -150 46 -52 101 -74 196 -80 43 -2 105 -8 138 -12
52 -6 56 -8 30 -14 -16 -3 -48 -7 -70 -8 -28 -1 -36 -4 -28 -12 7 -7 27 -7 69
0 68 13 253 13 214 1 -14 -4 -74 -9 -135 -9 -101 -2 -108 -3 -90 -17 14 -11
34 -14 68 -11 39 3 44 2 30 -8 -49 -33 -91 -25 -177 34 -27 19 -71 37 -112 45
l-67 14 64 -65 c35 -35 83 -76 107 -90 60 -35 114 -28 275 36 95 38 139 51
175 50 l47 -1 -40 -9 c-61 -14 -155 -50 -155 -60 0 -5 11 -9 24 -9 12 0 37 -5
55 -11 20 -7 36 -8 44 -1 29 23 66 21 175 -10 61 -17 110 -33 108 -35 -4 -4
-93 10 -178 28 -39 9 -63 10 -79 3 -21 -9 -17 -14 52 -58 87 -56 54 -52 -42 5
-105 63 -159 71 -303 46 l-70 -12 72 -34 c57 -26 94 -35 170 -42 53 -5 122
-13 152 -17 54 -8 54 -8 20 -15 -19 -3 -53 -2 -75 3 -22 5 -67 10 -100 10 -68
0 -130 16 -225 55 -72 30 -150 55 -150 49 0 -11 287 -144 377 -175 l98 -34
215 1 c203 1 211 0 145 -12 -245 -45 -421 -20 -667 94 -49 23 -88 39 -88 36 0
-3 7 -18 15 -33 10 -21 24 -30 52 -34 21 -4 68 -24 103 -45 62 -37 134 -66
190 -75 14 -2 0 -5 -31 -6 -43 -1 -67 5 -105 25 -151 81 -170 88 -139 54 31
-35 10 -31 -32 5 -25 21 -49 54 -62 88 -19 47 -30 58 -74 82 -29 16 -106 65
-172 110 -66 44 -127 85 -134 90 -17 10 17 -50 40 -71 9 -8 52 -33 95 -57 72
-38 82 -47 111 -102 18 -33 33 -64 33 -69 0 -17 -33 19 -46 49 -7 17 -22 41
-35 54 -31 33 -121 69 -104 41 3 -5 4 -10 2 -10 -6 0 -102 123 -153 197 -27
40 -52 73 -55 73 -4 0 -3 -19 2 -43 20 -108 64 -165 232 -302 161 -131 238
-174 382 -210 197 -50 424 -57 630 -19 50 9 126 17 170 18 69 1 88 -3 137 -27
66 -32 156 -126 195 -200 34 -69 23 -68 -21 0 -20 32 -55 73 -76 91 l-40 33 0
-42 c0 -23 -5 -59 -12 -81 l-11 -39 54 -55 c30 -30 69 -64 87 -76 18 -11 31
-23 28 -26 -7 -6 -77 39 -137 90 -25 21 -48 38 -51 38 -4 0 10 -37 31 -83 40
-85 61 -156 61 -202 0 -15 15 -52 34 -84 45 -77 53 -108 61 -230 7 -118 20
-158 61 -189 23 -17 25 -21 11 -22 -28 0 -64 43 -77 91 -7 24 -15 92 -19 150
-6 93 -11 111 -39 160 -17 30 -32 49 -32 43 0 -6 -5 -47 -11 -91 -10 -74 -9
-83 10 -114 30 -49 27 -71 -5 -34 l-25 30 4 -77 c4 -69 2 -75 -13 -66 -11 7
-15 20 -12 39 5 33 -12 39 -28 10 -7 -14 -6 -21 3 -24 7 -3 1 -9 -14 -15 -49
-20 -124 -124 -145 -202 l-13 -45 0 39 c-1 54 28 110 102 197 35 41 71 85 80
99 21 30 22 73 2 104 -9 13 -22 58 -30 101 -9 43 -17 80 -19 82 -2 2 -43 -8
-91 -22 -48 -14 -100 -25 -116 -25 -26 0 -29 -3 -29 -33 0 -18 7 -56 15 -85
17 -55 55 -94 145 -147 49 -29 19 -24 -42 6 -47 24 -48 24 -48 -3 -1 -18 -5
-15 -21 17 -12 22 -45 65 -73 95 -29 30 -65 71 -81 90 l-28 35 5 -120 c6 -139
31 -220 84 -273 17 -17 26 -32 19 -32 -7 0 -31 20 -53 45 -47 53 -67 118 -82
260 -11 109 -31 189 -54 220 -14 19 -15 19 -32 -20 -13 -31 -15 -59 -12 -125
5 -82 5 -84 -10 -50 -21 51 -18 140 8 190 l22 42 -27 28 c-21 22 -105 75 -157
98 -11 5 -28 -68 -28 -120 0 -46 1 -48 30 -48 42 0 79 -20 96 -51 16 -32 19
-53 3 -26 -12 21 -67 47 -100 47 -21 0 -22 -3 -16 -57 8 -70 40 -194 65 -254
11 -24 48 -79 83 -122 139 -170 170 -214 191 -267 27 -72 33 -154 15 -205 -14
-40 -15 -39 -13 55 0 84 -3 102 -27 154 -32 69 -209 291 -193 243 3 -10 6 -25
6 -33 0 -8 10 -24 22 -36 12 -12 15 -19 7 -16 -11 4 -14 -6 -12 -56 l2 -61
-16 68 -16 68 -81 42 c-45 23 -83 43 -86 45 -3 1 -1 -32 5 -74 10 -73 12 -78
66 -133 48 -50 61 -72 98 -172 50 -132 62 -219 38 -265 -15 -29 -16 -28 -10
28 7 67 -5 120 -54 243 -40 101 -61 135 -101 164 l-28 19 3 -71 c2 -48 10 -81
23 -104 24 -42 25 -50 3 -32 -37 31 -53 90 -54 204 -1 61 -4 124 -8 140 l-7
30 -33 -45 c-32 -44 -33 -47 -27 -120 4 -51 15 -94 36 -140 17 -36 23 -56 14
-45 -25 32 -61 107 -74 155 -11 40 -13 42 -23 25 -7 -12 -12 -62 -12 -117 0
-114 -18 -118 -23 -5 -3 51 1 85 13 117 26 69 28 103 10 165 -27 93 -69 129
-197 170 l-108 33 0 -26 c1 -47 36 -108 91 -154 30 -26 68 -58 84 -73 l30 -26
-55 27 c-117 56 -162 116 -179 239 -12 81 -2 144 37 256 39 112 45 151 32 201
-12 44 -52 103 -76 112 -12 5 -13 -6 -8 -67 4 -40 15 -96 26 -124 11 -29 18
-65 16 -80 -5 -30 -7 -26 -29 45 -15 51 -28 39 -29 -28 -1 -36 -3 -42 -11 -27
-7 13 -7 45 1 109 15 114 8 167 -28 201 -40 38 -200 91 -189 62 3 -7 15 -45
27 -84 18 -61 29 -80 75 -124 41 -40 57 -65 70 -107 25 -84 29 -174 12 -292
-9 -66 -12 -120 -7 -142 18 -79 106 -193 192 -247 77 -48 116 -87 148 -149 37
-74 77 -171 85 -212 10 -46 -7 -25 -30 37 -31 83 -96 215 -105 210 -4 -3 -11
-26 -15 -51 -3 -26 -8 -52 -11 -58 -2 -6 12 -21 31 -33 19 -13 39 -33 46 -45
l12 -23 -24 21 c-25 23 -69 48 -73 42 -11 -14 -27 -102 -22 -122 3 -14 24 -46
46 -71 22 -26 50 -65 61 -86 22 -45 37 -163 22 -172 -6 -4 -12 17 -16 51 -6
77 -39 150 -87 197 -22 21 -42 36 -45 33 -3 -3 -8 -41 -12 -85 -5 -76 -4 -83
31 -160 20 -44 36 -86 36 -92 0 -28 -18 -4 -50 67 -32 71 -35 83 -33 167 1 58
10 125 26 188 17 69 21 99 13 104 -6 4 -47 24 -90 45 -43 21 -92 48 -107 59
l-29 20 0 -34 c0 -34 29 -88 75 -137 32 -34 65 -108 64 -145 0 -27 -2 -25 -24
24 -14 29 -46 81 -73 115 -27 33 -53 70 -60 81 -19 33 -15 -49 8 -167 11 -57
20 -105 20 -107 0 -2 37 -40 83 -85 106 -103 148 -181 155 -290 6 -90 -13
-113 -22 -28 -17 140 -61 231 -149 304 -28 24 -48 36 -45 27 57 -151 70 -250
42 -335 -29 -88 -46 -86 -19 2 23 75 19 139 -14 234 -59 169 -111 463 -98 547
4 25 -2 56 -22 106 -16 40 -31 81 -33 92 -4 15 -11 7 -31 -35 -15 -30 -27 -60
-27 -67 0 -6 18 -45 40 -87 22 -41 40 -81 40 -88 -1 -7 -8 0 -16 15 -9 16 -17
27 -19 25 -1 -1 4 -38 12 -82 10 -54 24 -91 44 -119 16 -22 29 -47 29 -56 0
-9 -12 1 -27 23 l-28 39 -7 -49 c-5 -27 -15 -71 -23 -99 -14 -47 -15 -48 -10
-10 3 22 8 72 11 110 l6 70 -62 50 c-34 28 -76 65 -92 84 -37 41 -36 41 30
-134 59 -157 60 -207 12 -397 -20 -82 -37 -132 -42 -125 -11 16 -1 73 28 171
36 121 33 199 -13 322 l-38 99 0 -125 c-1 -118 -3 -130 -34 -205 -29 -71 -153
-275 -168 -275 -3 0 3 12 13 27 42 63 124 219 130 247 3 17 11 37 16 43 15 19
11 112 -7 163 -32 92 -85 157 -85 106 0 -7 -19 -42 -42 -77 -22 -35 -54 -91
-70 -124 l-29 -60 5 43 c2 27 20 69 46 112 25 41 44 87 47 112 4 29 2 40 -5
33 -27 -27 -152 -177 -152 -183 0 -29 55 -224 70 -250 24 -40 25 -49 4 -31
-24 20 -50 78 -69 157 l-18 74 -15 -31 c-18 -37 -27 -35 -13 3 15 38 4 32 -18
-12 -55 -108 -86 -257 -72 -353 5 -35 5 -68 1 -72 -9 -10 -16 17 -25 93 -11
94 46 306 108 400 19 30 22 45 19 103 l-4 68 -38 -54 c-45 -62 -90 -99 -155
-127 -70 -30 -78 -23 -11 10 117 57 198 161 215 280 7 41 24 102 40 136 33 70
50 186 31 209 -17 21 -30 19 -30 -4 0 -11 -5 -23 -11 -27 -9 -5 -11 6 -7 38 4
33 1 51 -11 67 l-17 22 -11 -24 c-10 -20 -6 -41 19 -118 26 -82 28 -99 19
-131 -16 -53 -27 -54 -22 -2 3 44 -32 164 -49 164 -4 0 -18 -23 -30 -52 -23
-53 -23 -64 -1 -168 12 -59 -3 -145 -37 -203 -29 -48 -111 -142 -118 -134 -3
3 18 33 46 68 76 96 85 120 85 226 0 50 -3 95 -7 99 -15 14 -23 -8 -22 -58 0
-45 -1 -48 -12 -26 -20 36 -17 68 16 136 17 35 30 66 30 68 0 2 -12 4 -27 4
-26 1 -27 1 -8 12 50 27 65 50 65 100 0 30 -4 48 -12 48 -6 0 -31 -21 -56 -46
-34 -36 -43 -41 -37 -23 21 66 91 143 173 189 37 21 45 31 58 78 17 57 20 104
10 143 -3 13 -3 18 0 11 3 -6 10 -10 15 -6 10 6 12 62 3 117 -6 33 -10 37 -35
37 l-28 0 14 -41 c8 -23 15 -69 15 -103 0 -55 -4 -68 -40 -122 -60 -92 -75
-96 -24 -8 24 43 45 88 45 99 4 47 -4 93 -23 138 -16 37 -25 47 -44 47 -23 0
-23 0 -7 -37 22 -53 6 -110 -62 -234 -51 -91 -55 -104 -55 -164 0 -42 -8 -86
-24 -129 -23 -65 -23 -65 -5 -107 11 -22 19 -55 19 -73 -1 -27 -3 -25 -20 23
-24 67 -27 69 -41 38 -10 -22 -8 -37 11 -89 12 -35 33 -85 46 -112 40 -82 22
-69 -52 41 -8 11 -9 0 -6 -44 5 -67 -8 -102 -54 -143 l-27 -25 29 50 c25 43
29 60 29 120 -1 39 -4 78 -8 89 -6 16 -12 12 -38 -28 -30 -44 -49 -64 -49 -51
0 4 16 36 36 71 l36 65 -12 117 c-7 64 -14 120 -17 125 -8 14 -55 -53 -75
-110 -14 -41 -19 -78 -18 -128 4 -104 -2 -129 -11 -50 -10 88 -2 159 23 208
11 22 17 41 15 44 -10 9 -127 -58 -139 -79 -27 -51 -14 -120 47 -250 64 -136
66 -138 72 -121 2 6 21 24 41 39 38 29 35 22 -19 -43 l-27 -31 25 -68 c65
-180 66 -359 3 -461 -33 -55 -39 -37 -8 25 35 71 46 168 28 270 -6 39 -15 74
-19 76 -4 3 -13 -10 -21 -27 -7 -18 -67 -86 -132 -153 l-118 -121 31 -68 c33
-69 44 -164 22 -186 -6 -6 -9 13 -9 53 1 56 -3 70 -34 117 l-34 54 -38 -43
c-23 -26 -46 -66 -57 -104 -18 -55 -20 -57 -20 -26 -1 42 28 109 68 157 l30
36 -25 48 c-13 27 -24 56 -25 66 -1 29 -38 -64 -62 -156 -19 -73 -22 -81 -25
-51 -2 20 12 84 33 150 20 63 34 124 31 135 -3 11 -21 47 -40 79 l-34 60 -20
-40 c-12 -21 -32 -52 -46 -69 -26 -30 -26 -29 4 35 42 91 42 96 -24 345 -9 32
-16 76 -16 97 0 21 -3 38 -8 38 -4 0 -24 -14 -45 -31 l-37 -30 0 -94 c0 -130
15 -192 55 -232 31 -31 32 -33 11 -33 -13 0 -30 8 -39 18 -25 27 -47 128 -47
215 0 49 -4 76 -10 72 -5 -3 -10 -33 -10 -66 0 -33 -4 -59 -10 -59 -19 0 -11
111 11 156 15 31 19 58 17 100 l-3 58 -18 -27 c-10 -16 -21 -62 -27 -114 -9
-89 -51 -257 -75 -303 -7 -14 -23 -34 -35 -45 -22 -19 -21 -17 4 33 15 29 38
94 53 145 22 80 26 116 30 285 5 206 -1 242 -32 182 -16 -31 -16 -60 0 -120 6
-23 5 -23 -10 4 -9 15 -20 24 -25 20 -4 -5 -17 -48 -29 -96 -46 -191 -98 -298
-191 -398 -42 -45 -42 -45 -14 -6 99 140 130 209 184 407 17 62 33 116 36 120
3 5 -7 25 -20 46 -14 21 -32 70 -40 108 -8 39 -21 92 -29 118 l-13 48 -26 -48
c-52 -95 -47 -171 17 -275 37 -59 58 -112 48 -122 -3 -3 -13 9 -23 27 -9 18
-32 59 -51 92 -18 33 -39 85 -45 115 l-11 55 -13 -60 c-18 -86 -3 -167 54
-280 l45 -90 -49 52 c-45 49 -89 136 -91 181 0 14 -2 14 -9 -3 -5 -11 -9 -52
-9 -91 -1 -64 3 -78 44 -158 25 -49 45 -96 45 -105 0 -20 -78 111 -96 163 -19
54 -17 143 5 234 11 42 22 97 26 122 l6 45 -61 -60 c-88 -87 -100 -109 -111
-217 -10 -102 -22 -126 -79 -160 l-35 -21 37 35 c39 38 58 87 58 158 1 25 7
63 15 85 8 21 13 41 11 43 -9 8 -113 -87 -128 -118 -17 -32 -18 -33 -18 -10 0
41 35 86 102 131 110 74 194 146 247 213 29 36 51 70 49 76 -7 21 -96 -34
-153 -95 -37 -40 -92 -84 -145 -115 -79 -47 -80 -43 -5 16 16 12 26 26 22 30
-13 14 -121 16 -165 5 -55 -15 -101 -57 -112 -101 l-8 -35 -1 42 c-1 36 3 45
32 67 57 43 103 56 199 56 107 0 144 14 194 75 33 41 111 85 149 85 12 0 145
125 145 136 0 1 -28 5 -63 8 -74 8 -104 -1 -143 -45 -16 -18 -64 -67 -106
-109 -43 -42 -78 -81 -78 -88 0 -7 -4 -12 -10 -12 -5 0 -10 9 -10 20 0 19 84
110 102 110 4 0 8 5 8 10 0 15 -31 12 -76 -9 -27 -12 -57 -39 -84 -75 -48 -63
-61 -67 -32 -9 37 71 100 115 185 127 41 6 51 12 72 46 14 22 25 43 25 46 0 4
-37 4 -82 2 -111 -6 -149 -27 -267 -147 -52 -53 -83 -82 -69 -66 15 17 42 57
61 90 60 102 102 135 203 158 l57 13 -52 38 c-29 20 -64 41 -77 47 -64 24
-159 -2 -260 -71 -57 -38 -65 -38 -28 1 48 51 84 72 162 95 l74 21 -37 21
c-71 43 -167 51 -310 27 -19 -3 -13 1 15 11 25 8 74 18 111 21 107 9 205 -27
397 -148 51 -33 95 -59 97 -59 3 0 -7 17 -21 37 -13 20 -27 48 -30 62 -18 83
-28 91 -112 92 -37 1 -78 5 -92 10 -16 6 13 7 83 5 94 -3 107 -2 107 13 0 36
-39 61 -95 61 -41 0 -40 15 1 23 41 7 83 -11 100 -45 8 -16 18 -61 21 -98 11
-133 55 -164 250 -176 l121 -7 21 41 c11 22 50 76 87 119 71 85 160 226 145
231 -17 6 -163 -51 -189 -73 -22 -19 -25 -32 -31 -120 -4 -55 -13 -111 -20
-123 -18 -34 -24 -20 -12 25 6 21 11 58 11 83 l0 45 -28 -50 c-19 -35 -38 -55
-66 -68 -52 -25 -57 -14 -8 17 32 20 44 37 61 83 12 32 26 66 32 76 6 11 8 21
5 24 -12 12 -175 -78 -209 -117 -42 -46 -46 -42 -14 15 30 53 102 95 241 141
124 41 200 75 233 106 12 11 39 49 60 85 21 36 51 76 67 90 l30 25 -65 -7
c-106 -12 -123 -23 -164 -110 -37 -77 -59 -100 -30 -32 20 49 19 54 -8 29 -12
-11 -43 -30 -69 -42 -25 -11 -59 -32 -75 -48 -17 -15 -61 -45 -99 -67 -38 -22
-88 -59 -111 -82 -47 -46 -53 -45 -24 4 11 18 49 49 88 72 79 47 130 87 122
95 -8 8 -200 -87 -217 -106 -7 -9 -21 -33 -32 -54 -19 -38 -19 -38 -20 -11 0
32 15 66 39 85 38 30 153 82 248 111 86 27 109 38 150 77 l48 45 -35 -7 c-62
-12 -171 -51 -320 -114 -236 -101 -345 -131 -465 -129 -46 0 -43 2 43 20 141
30 402 129 339 129 -13 0 -87 72 -87 85 0 12 20 3 55 -25 47 -37 98 -40 158
-8 23 13 55 28 71 34 29 10 26 12 -73 47 -67 24 -121 37 -154 37 -48 1 -50 2
-33 15 32 24 92 18 176 -19 43 -19 101 -39 130 -44 47 -9 58 -7 131 24 43 18
119 45 167 60 48 14 94 28 102 31 20 7 -62 30 -128 36 -52 4 -53 4 -92 -41
-42 -47 -49 -48 -26 -4 22 42 58 71 120 96 l56 23 -56 12 c-81 16 -160 14
-197 -6 -31 -15 -31 -15 -17 2 19 23 71 45 108 45 15 0 71 -11 123 -25 l96
-25 94 19 c85 16 159 43 159 57 0 3 -33 2 -72 -1 -70 -6 -72 -5 -45 10 17 10
68 19 135 24 91 6 116 12 162 37 48 25 59 37 87 94 18 36 33 68 33 73 0 4
-700 7 -1555 7 l-1555 0 -1 -227z m4729 -310 c-10 -2 -26 -2 -35 0 -10 3 -2 5
17 5 19 0 27 -2 18 -5z m259 -79 c-3 -3 -12 -4 -19 -1 -8 3 -5 6 6 6 11 1 17
-2 13 -5z"/>
<path d="M3675 3123 c-12 -50 -82 -191 -116 -233 -52 -64 -114 -98 -244 -130
-64 -17 -125 -30 -134 -30 -9 0 -46 -23 -83 -50 -82 -60 -112 -113 -127 -226
-15 -105 -35 -163 -72 -205 -23 -26 -27 -29 -18 -9 17 34 49 159 49 190 0 19
-12 5 -46 -54 -24 -44 -71 -111 -102 -149 -79 -95 -111 -140 -112 -155 0 -11
17 -12 88 -7 110 9 219 37 283 71 48 26 149 123 149 142 0 6 -24 -3 -53 -19
-32 -17 -77 -31 -113 -35 -32 -4 -67 -11 -76 -16 -10 -5 -18 -5 -18 0 0 17 25
32 53 32 38 0 117 20 117 30 0 13 -65 31 -85 24 -13 -6 -16 -4 -10 5 10 17
104 9 115 -10 16 -24 101 59 140 137 19 38 46 84 59 102 13 18 22 34 20 36 -2
1 -26 1 -52 -2 -42 -4 -51 -8 -71 -41 -13 -20 -34 -46 -47 -58 -30 -27 -172
-113 -178 -107 -9 9 36 47 96 80 57 32 120 90 109 101 -8 9 -92 -40 -128 -75
-57 -54 -46 -21 12 37 56 57 108 77 218 87 l73 7 92 99 c147 159 193 239 218
383 11 66 8 101 -6 48z"/>
<path d="M3925 3008 c8 -94 39 -188 72 -220 16 -15 57 -40 93 -56 77 -35 123
-80 145 -141 20 -58 14 -61 -15 -8 -25 47 -66 94 -93 108 -15 9 -14 3 7 -38
l24 -49 -79 80 c-44 43 -82 76 -85 73 -8 -8 31 -123 59 -171 19 -35 30 -42 84
-58 35 -10 89 -38 122 -61 121 -87 224 -167 214 -167 -27 0 -87 34 -140 81
-32 28 -65 55 -74 60 -15 8 -15 5 -2 -33 23 -68 31 -77 102 -112 88 -45 165
-116 221 -205 25 -39 49 -71 54 -71 5 0 6 34 4 75 -6 88 -29 130 -117 209 -31
28 -92 87 -137 132 -67 67 -84 90 -100 139 -18 56 -25 65 -116 138 -130 103
-187 180 -230 307 l-19 55 6 -67z"/>
<path d="M3410 3020 c-30 -11 -64 -19 -76 -19 -11 -1 -29 -10 -40 -22 -33 -36
-69 -49 -189 -64 -104 -14 -234 -50 -222 -62 3 -2 15 1 27 7 16 9 54 10 129 5
171 -11 271 16 369 100 33 29 74 79 60 74 -2 -1 -28 -9 -58 -19z"/>
<path d="M3736 2907 c-13 -83 -36 -160 -63 -214 -30 -60 -26 -98 6 -69 37 33
64 116 69 206 5 103 -1 144 -12 77z"/>
<path d="M3831 2880 c-2 -82 -26 -183 -61 -252 l-31 -61 27 -28 c15 -16 31
-29 36 -29 14 0 36 55 53 135 16 77 16 84 -3 185 -19 99 -20 102 -21 50z"/>
<path d="M3608 2616 c-17 -13 -91 -136 -82 -136 14 0 114 96 114 109 0 30 -14
40 -32 27z"/>
<path d="M3893 2555 c8 -102 32 -170 78 -219 l39 -41 -51 155 c-29 85 -56 160
-61 165 -7 7 -9 -14 -5 -60z"/>
<path d="M4310 2583 c0 -45 32 -85 154 -193 174 -155 208 -222 182 -366 -7
-40 -6 -42 28 -58 19 -9 55 -19 80 -22 l46 -7 0 38 c0 21 -15 71 -35 115 -19
43 -35 84 -35 91 0 23 -39 79 -73 107 -18 14 -84 78 -147 142 -63 63 -134 130
-157 148 l-43 34 0 -29z"/>
<path d="M3843 2530 l-23 -45 40 -40 c40 -40 41 -40 30 -10 -5 17 -13 55 -18
85 l-7 55 -22 -45z"/>
<path d="M3474 2510 c-31 -31 -75 -96 -119 -176 -89 -161 -151 -228 -263 -282
-98 -48 -141 -78 -152 -106 -4 -12 -11 -60 -14 -106 -4 -47 -12 -96 -19 -108
-11 -23 -84 -68 -94 -58 -3 2 9 12 26 20 41 22 58 58 63 139 2 37 3 67 2 67
-14 0 -34 -39 -34 -68 -1 -20 -7 -50 -15 -67 -13 -28 -14 -26 -8 39 l6 68 -29
-15 c-57 -30 -104 -103 -104 -162 0 -15 -4 -24 -10 -20 -14 9 -12 60 4 98 15
37 73 91 122 115 19 8 36 24 39 34 4 9 22 31 41 46 l35 29 -118 -4 c-86 -4
-126 -10 -148 -22 -29 -17 -30 -19 -30 -94 0 -47 -5 -81 -12 -88 -11 -10 -13
2 -13 62 0 51 -3 69 -10 59 -5 -8 -10 -55 -10 -104 0 -69 4 -94 16 -107 20
-22 54 -140 54 -186 0 -18 3 -33 8 -33 4 0 41 34 82 76 69 69 183 159 352 277
78 55 121 96 154 149 37 59 29 65 -24 17 -76 -70 -263 -210 -252 -190 5 11 33
40 62 65 l53 46 -47 0 c-37 0 -50 -5 -62 -22 -19 -26 -27 -21 -15 10 10 27 46
42 104 42 24 0 56 5 72 11 24 9 26 12 11 20 -9 5 -35 10 -57 12 -23 1 -41 6
-41 11 0 5 33 6 75 3 l75 -5 43 45 c52 55 51 54 71 132 21 84 46 138 99 219
65 99 100 162 90 162 -5 0 -32 -22 -59 -50z"/>
<path d="M3707 2533 c-4 -3 -7 -17 -7 -29 0 -30 33 -49 60 -34 27 14 25 24 -6
49 -28 22 -37 25 -47 14z"/>
<path d="M4587 2508 c16 -18 49 -59 73 -91 44 -59 102 -107 180 -148 39 -21
58 -24 155 -24 105 0 245 26 245 45 0 11 -31 35 -84 66 l-49 28 6 -30 c3 -16
9 -38 13 -49 7 -17 6 -18 -8 -7 -8 7 -18 33 -21 58 -8 73 -43 99 -142 108 -44
4 -95 9 -113 13 l-34 6 15 -29 c20 -38 52 -67 104 -93 23 -11 45 -26 49 -33 4
-6 -23 5 -60 25 -36 20 -68 37 -70 37 -2 0 -1 -12 2 -27 8 -46 -13 -14 -32 49
-18 62 -36 83 -37 46 -1 -22 -1 -22 -10 3 -11 29 -55 52 -129 69 -81 17 -88
15 -53 -22z m179 -146 c-11 -10 -14 3 -8 33 l7 30 3 -28 c2 -16 1 -31 -2 -35z"/>
<path d="M5418 2502 c-45 -14 -64 -32 -35 -32 25 0 213 -101 246 -132 32 -30
34 -31 47 -13 19 26 18 115 -2 144 -9 13 -32 29 -50 37 -43 18 -146 16 -206
-4z"/>
<path d="M4090 2504 c0 -36 108 -154 142 -154 28 0 -15 120 -50 139 -25 13
-92 25 -92 15z"/>
<path d="M3607 2431 c-86 -93 -118 -178 -81 -215 16 -17 51 -21 70 -8 13 8 59
96 68 132 5 20 -4 13 -45 -30 l-51 -55 21 43 c12 23 39 59 61 80 38 36 47 61
34 96 -10 25 -18 20 -77 -43z"/>
<path d="M5121 2469 c-24 -5 -46 -11 -49 -13 -9 -10 20 -35 105 -93 80 -53 87
-56 115 -45 l31 11 -22 -22 -21 -23 33 -31 c17 -17 55 -38 84 -47 28 -9 76
-35 107 -56 l55 -39 19 42 c11 23 33 59 51 81 17 21 31 42 31 46 0 11 -65 59
-152 111 -125 75 -261 103 -387 78z"/>
<path d="M3768 2442 c-37 -26 -48 -55 -28 -67 6 -4 8 -10 6 -14 -3 -4 3 -34
12 -66 l17 -58 58 62 c31 34 57 68 57 74 0 7 -19 31 -42 54 l-43 42 -37 -27z"/>
<path d="M3698 2370 c-3 -14 -9 -34 -13 -45 -7 -19 -6 -19 15 2 19 18 22 26
13 45 l-10 23 -5 -25z"/>
<path d="M3860 2298 c-83 -93 -81 -88 -60 -135 16 -37 24 -43 74 -57 31 -9 56
-18 56 -20 0 -2 -26 -2 -57 1 l-58 5 1 -107 c0 -98 2 -110 23 -131 72 -75 165
34 164 193 0 60 -10 85 -61 161 -7 11 -19 4 -51 -30 -44 -45 -42 -30 6 43 19
29 23 47 21 87 l-3 51 -55 -61z"/>
<path d="M3684 2269 c-16 -34 -41 -72 -57 -85 -26 -22 -26 -24 -8 -33 10 -6
52 -14 91 -17 60 -6 72 -5 68 7 -3 8 -10 13 -15 12 -6 -1 -8 9 -5 22 5 26 -26
155 -38 155 -3 0 -19 -27 -36 -61z"/>
<path d="M3950 2273 c4 -27 20 -69 37 -96 54 -83 52 -187 -6 -308 l-26 -56 30
8 c16 5 41 20 55 34 24 25 25 30 25 153 0 117 -2 132 -27 184 -27 59 -75 128
-87 128 -4 0 -5 -21 -1 -47z"/>
<path d="M5187 2243 c-81 -34 -198 -49 -267 -36 -30 6 -57 10 -59 8 -1 -2 29
-20 68 -40 81 -40 154 -60 253 -69 l68 -7 20 33 c22 36 26 88 10 119 -13 23
-20 23 -93 -8z"/>
<path d="M3441 2207 c-10 -28 -9 -53 4 -119 25 -133 23 -132 67 -43 l40 79
-36 32 c-20 18 -43 44 -50 59 l-14 27 -11 -35z"/>
<path d="M5632 2208 c-17 -22 -52 -96 -52 -111 0 -8 8 -22 19 -31 10 -9 29
-39 42 -67 22 -46 26 -49 53 -43 20 4 26 3 22 -5 -4 -6 -16 -11 -27 -11 -10 0
-19 -3 -19 -7 0 -28 23 -143 32 -167 l12 -30 8 30 c17 56 18 220 3 278 -13 50
-70 176 -79 176 -2 0 -8 -6 -14 -12z"/>
<path d="M4740 2203 c0 -23 40 -84 94 -143 36 -39 69 -82 72 -96 3 -13 12 -24
20 -24 11 0 14 21 14 96 0 85 -2 96 -19 101 -10 2 -55 19 -100 37 -44 18 -81
31 -81 29z"/>
<path d="M5303 2159 c-7 -29 -11 -54 -9 -56 8 -9 86 11 86 22 0 6 -15 29 -32
49 l-33 38 -12 -53z"/>
<path d="M5380 2175 c0 -4 7 -19 15 -35 14 -27 21 -30 63 -31 l47 -1 -44 -9
c-24 -5 -44 -10 -45 -11 -1 -2 0 -42 2 -90 l3 -88 47 0 c47 0 158 22 169 34 8
8 -39 98 -55 104 -8 2 -12 -12 -12 -52 0 -30 -4 -57 -8 -60 -5 -3 -8 28 -6 69
2 70 1 74 -27 100 -51 44 -149 91 -149 70z"/>
<path d="M3522 2020 l-40 -81 21 -65 c12 -35 24 -64 29 -64 15 0 78 129 84
171 5 45 -18 109 -43 117 -6 2 -29 -33 -51 -78z"/>
<path d="M4252 2079 c4 -9 18 -65 33 -125 26 -102 27 -116 20 -229 -15 -213
-12 -334 8 -387 34 -88 122 -174 239 -234 l48 -24 6 27 c3 16 10 44 15 63 5
19 9 38 9 43 0 4 -30 27 -67 51 -73 47 -125 97 -167 160 -63 94 -3 -62 70
-184 31 -51 53 -94 51 -96 -3 -3 -19 12 -36 33 -49 59 -118 204 -137 289 -15
68 -15 89 -4 168 28 207 22 302 -25 381 -25 44 -73 92 -63 64z"/>
<path d="M5322 2081 c-41 -5 -58 -13 -73 -31 -10 -14 -19 -30 -19 -36 0 -30
106 -103 153 -104 14 0 17 9 17 59 0 64 -9 122 -19 120 -3 -1 -30 -5 -59 -8z"/>
<path d="M5155 2065 c41 -34 53 -37 65 -15 9 17 8 20 -12 20 -13 0 -34 3 -48
6 -25 5 -25 5 -5 -11z"/>
<path d="M3401 2037 c-7 -19 -25 -54 -42 -76 -17 -25 -29 -53 -29 -72 l0 -32
33 25 c46 36 78 96 71 133 -11 55 -21 61 -33 22z"/>
<path d="M4812 1985 c0 -54 0 -55 28 -55 42 0 60 9 53 28 -7 19 -63 82 -74 82
-3 0 -7 -25 -7 -55z"/>
<path d="M4587 1948 c19 -101 80 -204 186 -314 29 -29 49 -55 43 -57 -5 -2 14
-17 42 -35 l52 -32 29 40 c38 52 57 123 43 155 -8 17 -55 46 -162 100 -132 67
-156 83 -188 125 -20 27 -40 49 -44 49 -4 1 -5 -14 -1 -31z"/>
<path d="M2538 1943 c-103 -57 -102 -166 1 -268 35 -33 41 -36 47 -21 4 10 -3
49 -16 87 -24 76 -22 113 8 157 24 35 34 72 19 72 -7 0 -33 -12 -59 -27z"/>
<path d="M4522 1872 c-66 -157 -55 -184 92 -221 48 -12 110 -33 137 -46 26
-14 51 -25 54 -25 3 0 -32 37 -78 83 -85 85 -138 171 -152 250 -4 20 -10 37
-14 37 -3 0 -21 -35 -39 -78z"/>
<path d="M4680 1933 c0 -10 67 -52 156 -96 39 -20 86 -48 104 -64 l34 -28 -7
25 c-4 14 -10 49 -13 78 -4 29 -10 54 -13 57 -4 2 -36 5 -72 6 -58 1 -126 11
-171 25 -10 3 -18 2 -18 -3z"/>
<path d="M3374 1861 c-37 -40 -53 -67 -57 -95 -3 -22 -22 -73 -42 -114 -19
-41 -34 -77 -31 -79 6 -6 117 51 142 73 16 14 23 35 27 77 3 31 4 57 2 57 -2
0 -15 -19 -29 -42 -38 -64 -31 -23 10 58 20 41 34 81 32 95 -3 24 -6 22 -54
-30z"/>
<path d="M5260 1916 c0 -11 84 -118 115 -146 22 -20 27 -21 22 -7 -4 10 -7 39
-7 63 0 37 -3 44 -20 44 -23 0 -69 19 -92 38 -10 9 -18 12 -18 8z"/>
<path d="M3269 1864 c-13 -14 -90 -70 -170 -125 -157 -105 -194 -144 -229
-237 -21 -56 -54 -225 -48 -244 7 -19 55 75 62 120 19 128 158 285 309 352 59
26 117 90 117 130 0 37 -9 38 -41 4z"/>
<path d="M3461 1854 c-13 -50 -31 -142 -31 -162 0 -20 24 0 61 51 27 37 27 40
14 78 -26 73 -32 78 -44 33z"/>
<path d="M2574 1834 c-4 -14 -2 -35 4 -47 9 -19 11 -15 11 26 1 52 -5 61 -15
21z"/>
<path d="M4144 1828 c-72 -64 -94 -104 -94 -175 0 -34 4 -63 8 -63 17 0 151
148 158 173 6 26 -10 82 -27 92 -4 3 -25 -9 -45 -27z"/>
<path d="M3791 1798 c-7 -22 -10 -42 -8 -44 2 -2 22 4 45 14 l41 18 -33 26
-33 27 -12 -41z"/>
<path d="M3930 1768 c-128 -56 -131 -57 -145 -91 -21 -50 -22 -144 -2 -164 15
-15 18 -12 40 38 24 53 65 119 121 192 30 39 27 43 -14 25z"/>
<path d="M3199 1680 c-47 -50 -91 -90 -97 -90 -6 0 9 20 33 45 76 75 58 77
-54 6 -56 -36 -152 -171 -176 -251 -7 -22 -3 -21 36 16 25 22 87 72 139 112
97 73 174 152 203 209 36 69 17 58 -84 -47z"/>
<path d="M3736 1644 c-15 -38 -16 -47 -5 -61 12 -14 15 -9 21 43 3 32 5 60 4
61 -1 1 -10 -18 -20 -43z"/>
<path d="M4132 1622 c-61 -56 -71 -71 -66 -90 9 -32 22 -24 76 43 37 46 76
115 65 115 -1 0 -35 -30 -75 -68z"/>
<path d="M2480 1659 c0 -13 10 -43 22 -67 l21 -45 19 38 c11 20 18 38 16 39
-2 1 -20 14 -40 29 -38 28 -38 28 -38 6z"/>
<path d="M2611 1648 c-1 -21 2 -38 7 -38 4 0 5 -34 4 -76 -2 -42 -1 -93 3
-112 l7 -36 20 32 c18 29 19 37 8 102 -6 38 -16 70 -21 70 -6 0 -8 4 -5 9 3 5
-1 26 -8 47 l-15 39 0 -37z"/>
<path d="M3515 1658 c-11 -36 -22 -127 -14 -122 9 5 25 57 34 107 6 40 -8 51
-20 15z"/>
<path d="M3939 1593 c-71 -91 -67 -85 -84 -126 -8 -20 -11 -38 -6 -41 5 -3 32
15 60 40 43 39 54 56 72 116 11 38 18 72 16 74 -3 3 -28 -26 -58 -63z"/>
<path d="M3442 1638 c-7 -7 -12 -23 -11 -37 1 -24 2 -24 15 8 16 36 15 48 -4
29z"/>
<path d="M4969 1566 l-36 -73 69 -43 c38 -23 71 -40 75 -37 4 5 -65 229 -70
226 -1 0 -18 -33 -38 -73z"/>
<path d="M3210 1600 c-12 -17 -74 -71 -138 -119 -164 -124 -166 -127 -172
-219 l-6 -77 -8 54 -9 54 -18 -34 c-32 -60 -21 -110 41 -189 24 -29 88 -78 91
-68 0 2 8 35 18 73 l17 70 -25 44 c-62 112 -1 244 153 331 36 20 58 41 70 66
22 47 15 54 -14 14z"/>
<path d="M4011 1608 c-5 -13 -12 -33 -16 -46 -6 -22 -5 -22 14 -10 14 9 21 23
21 45 0 38 -7 42 -19 11z"/>
<path d="M3680 1601 c0 -25 6 -27 13 -6 4 8 2 17 -3 20 -6 4 -10 -3 -10 -14z"/>
<path d="M4173 1519 c-35 -36 -63 -73 -63 -83 0 -16 46 -116 54 -116 2 0 20
28 41 61 40 65 53 123 38 174 l-8 30 -62 -66z"/>
<path d="M4740 1565 c0 -2 13 -25 29 -51 17 -25 33 -59 36 -75 10 -43 19 -42
54 6 l31 44 -27 19 c-29 20 -108 62 -118 62 -3 0 -5 -2 -5 -5z"/>
<path d="M2795 1538 c-17 -12 -47 -37 -67 -57 -36 -33 -38 -38 -38 -98 l0 -64
45 33 c33 24 48 44 56 73 6 22 17 60 24 85 8 24 13 45 12 46 -1 2 -16 -7 -32
-18z"/>
<path d="M4001 1513 c-17 -16 -36 -49 -45 -78 l-15 -50 0 39 -1 40 -35 -34
-34 -33 43 -61 c24 -34 60 -90 81 -126 20 -36 35 -58 33 -50 -36 121 -42 162
-30 206 7 24 23 62 37 83 21 31 24 43 16 64 -6 15 -13 27 -16 27 -2 0 -18 -12
-34 -27z"/>
<path d="M3460 1478 c0 -32 3 -39 10 -28 13 20 13 70 0 70 -5 0 -10 -19 -10
-42z"/>
<path d="M3086 1420 c-72 -76 -92 -146 -65 -217 11 -28 11 -28 28 27 10 30 28
75 40 99 23 44 53 132 47 138 -2 2 -24 -19 -50 -47z"/>
<path d="M4063 1383 c-36 -87 7 -209 107 -308 68 -67 78 -58 23 23 -34 49 -38
60 -39 126 -2 60 -7 83 -34 134 -18 34 -34 62 -37 62 -2 0 -11 -17 -20 -37z"/>
<path d="M3141 1377 c-16 -40 -14 -127 5 -207 14 -64 17 -199 2 -140 -7 31
-29 158 -37 225 l-7 50 -18 -40 c-21 -47 -66 -219 -66 -252 0 -63 170 -32 243
45 l28 29 -21 54 c-12 30 -33 73 -46 97 -14 23 -36 70 -49 105 -23 62 -23 62
-34 34z"/>
<path d="M3840 1365 c-8 -9 -10 -29 -7 -51 7 -45 62 -164 76 -164 5 0 17 20
27 45 l17 45 -47 70 c-25 39 -48 70 -50 70 -2 0 -9 -7 -16 -15z"/>
<path d="M4170 1225 c0 -34 20 -92 40 -117 19 -23 19 -22 1 38 -10 33 -23 69
-29 80 -11 19 -11 18 -12 -1z"/>
<path d="M3772 1128 c-30 -145 -36 -195 -24 -183 47 47 122 143 122 155 0 8
-18 41 -39 73 l-38 57 -21 -102z"/>
<path d="M3741 1194 c0 -11 3 -14 6 -6 3 7 2 16 -1 19 -3 4 -6 -2 -5 -13z"/>
<path d="M3948 1167 c-23 -54 -23 -50 14 -105 18 -26 45 -69 60 -97 23 -42 28
-46 28 -24 0 68 -58 269 -79 269 -3 0 -14 -19 -23 -43z"/>
<path d="M3252 1020 c-65 -59 -104 -73 -178 -67 -37 3 -61 1 -58 -4 14 -23 92
-51 162 -59 l77 -9 -90 3 c-63 2 -100 8 -124 20 l-34 18 6 -69 c7 -67 28 -155
46 -182 11 -17 195 161 240 233 36 57 37 68 13 118 l-17 37 -43 -39z"/>
<path d="M2890 996 c0 -19 60 -139 67 -132 6 5 -35 109 -52 132 -14 18 -14 18
-15 0z"/>
<path d="M2965 935 c4 -11 10 -44 13 -73 7 -74 19 -74 14 1 -2 38 -10 68 -19
77 -14 13 -15 13 -8 -5z"/>
<path d="M3006 710 c3 -14 10 -29 15 -34 14 -16 10 6 -7 34 l-15 25 7 -25z"/>
</g>
</svg>
